<?xml version="1.0" encoding="UTF-8" standalone="no"?>
<!-- Created with Inkscape (http://www.inkscape.org/) -->

<svg
   xmlns:dc="http://purl.org/dc/elements/1.1/"
   xmlns:cc="http://creativecommons.org/ns#"
   xmlns:rdf="http://www.w3.org/1999/02/22-rdf-syntax-ns#"
   xmlns:svg="http://www.w3.org/2000/svg"
   xmlns="http://www.w3.org/2000/svg"
   xmlns:xlink="http://www.w3.org/1999/xlink"
   xmlns:sodipodi="http://sodipodi.sourceforge.net/DTD/sodipodi-0.dtd"
   xmlns:inkscape="http://www.inkscape.org/namespaces/inkscape"
   inkscape:export-ydpi="1500"
   inkscape:export-xdpi="1500"
   inkscape:export-filename="/home/caiosba/The Jibe/Timer/hangout-timer/res/app-icon-big.png"
   width="48px"
   height="48px"
   id="svg11300"
   sodipodi:version="0.32"
   inkscape:version="0.48.3.1 r9886"
   sodipodi:docname="app-icon.svg"
   inkscape:output_extension="org.inkscape.output.svg.inkscape"
   version="1.1">
  <defs
     id="defs3">
    <inkscape:perspective
       sodipodi:type="inkscape:persp3d"
       inkscape:vp_x="0 : 24 : 1"
       inkscape:vp_y="0 : 1000 : 0"
       inkscape:vp_z="48 : 24 : 1"
       inkscape:persp3d-origin="24 : 16 : 1"
       id="perspective59" />
    <linearGradient
       inkscape:collect="always"
       id="linearGradient5204">
      <stop
         style="stop-color:#c4a000;stop-opacity:1;"
         offset="0"
         id="stop5206" />
      <stop
         style="stop-color:#c4a000;stop-opacity:0;"
         offset="1"
         id="stop5208" />
    </linearGradient>
    <linearGradient
       inkscape:collect="always"
       id="linearGradient5196">
      <stop
         style="stop-color:#c4a000;stop-opacity:1;"
         offset="0"
         id="stop5198" />
      <stop
         style="stop-color:#c4a000;stop-opacity:0;"
         offset="1"
         id="stop5200" />
    </linearGradient>
    <linearGradient
       id="linearGradient12512">
      <stop
         style="stop-color:#ffffff;stop-opacity:1.0000000;"
         offset="0.0000000"
         id="stop12513" />
      <stop
         style="stop-color:#fff520;stop-opacity:0.89108908;"
         offset="0.50000000"
         id="stop12517" />
      <stop
         style="stop-color:#fff300;stop-opacity:0.0000000;"
         offset="1.0000000"
         id="stop12514" />
    </linearGradient>
    <radialGradient
       inkscape:collect="always"
       xlink:href="#linearGradient12512"
       id="radialGradient278"
       gradientUnits="userSpaceOnUse"
       cx="55.000000"
       cy="125.00000"
       fx="55.000000"
       fy="125.00000"
       r="14.375000" />
    <linearGradient
       id="linearGradient10653">
      <stop
         style="stop-color:#f3f4ff;stop-opacity:1.0000000;"
         offset="0.0000000"
         id="stop10655" />
      <stop
         style="stop-color:#9193af;stop-opacity:1.0000000;"
         offset="1.0000000"
         id="stop10657" />
    </linearGradient>
    <linearGradient
       id="linearGradient42174">
      <stop
         style="stop-color:#a0a0a0;stop-opacity:1.0000000;"
         offset="0.0000000"
         id="stop42176" />
      <stop
         style="stop-color:#ffffff;stop-opacity:1.0000000;"
         offset="1.0000000"
         id="stop42178" />
    </linearGradient>
    <linearGradient
       id="linearGradient2145">
      <stop
         style="stop-color:#fffffd;stop-opacity:1.0000000;"
         offset="0.0000000"
         id="stop2147" />
      <stop
         style="stop-color:#cbcbc9;stop-opacity:1.0000000;"
         offset="1.0000000"
         id="stop2149" />
    </linearGradient>
    <linearGradient
       id="linearGradient37935">
      <stop
         id="stop37937"
         offset="0.0000000"
         style="stop-color:#9497b3;stop-opacity:1.0000000;" />
      <stop
         id="stop37939"
         offset="1.0000000"
         style="stop-color:#4c4059;stop-opacity:1.0000000;" />
    </linearGradient>
    <linearGradient
       id="linearGradient2152">
      <stop
         id="stop2154"
         offset="0.0000000"
         style="stop-color:#9aa29a;stop-opacity:1.0000000;" />
      <stop
         id="stop2156"
         offset="1.0000000"
         style="stop-color:#b5beb5;stop-opacity:1.0000000;" />
    </linearGradient>
    <linearGradient
       inkscape:collect="always"
       id="linearGradient3816">
      <stop
         style="stop-color:#000000;stop-opacity:1;"
         offset="0"
         id="stop3818" />
      <stop
         style="stop-color:#000000;stop-opacity:0;"
         offset="1"
         id="stop3820" />
    </linearGradient>
    <radialGradient
       inkscape:collect="always"
       xlink:href="#linearGradient3816"
       id="radialGradient3822"
       cx="31.112698"
       cy="19.008621"
       fx="31.112698"
       fy="19.008621"
       r="8.6620579"
       gradientUnits="userSpaceOnUse" />
    <linearGradient
       inkscape:collect="always"
       xlink:href="#linearGradient2152"
       id="linearGradient4307"
       gradientUnits="userSpaceOnUse"
       gradientTransform="matrix(3.123841,0.000000,0.000000,0.969691,-31.88758,-19.59492)"
       x1="8.9156475"
       y1="37.197018"
       x2="9.8855033"
       y2="52.090678" />
    <radialGradient
       inkscape:collect="always"
       xlink:href="#linearGradient10653"
       id="radialGradient4309"
       gradientUnits="userSpaceOnUse"
       cx="11.329200"
       cy="10.583970"
       fx="11.329200"
       fy="10.583970"
       r="15.532059" />
    <radialGradient
       inkscape:collect="always"
       xlink:href="#linearGradient2145"
       id="radialGradient4311"
       gradientUnits="userSpaceOnUse"
       cx="11.901996"
       cy="10.045444"
       fx="11.901996"
       fy="10.045444"
       r="29.292715" />
    <linearGradient
       inkscape:collect="always"
       xlink:href="#linearGradient42174"
       id="linearGradient4313"
       gradientUnits="userSpaceOnUse"
       x1="6.3422160"
       y1="7.7893324"
       x2="22.218424"
       y2="25.884274" />
    <radialGradient
       inkscape:collect="always"
       xlink:href="#linearGradient5196"
       id="radialGradient5202"
       cx="23.375"
       cy="10.972863"
       fx="23.375"
       fy="10.972863"
       r="3.3478092"
       gradientTransform="matrix(3.630420,1.654030e-15,-1.608743e-15,3.742066,-61.48607,-29.18618)"
       gradientUnits="userSpaceOnUse" />
    <linearGradient
       inkscape:collect="always"
       xlink:href="#linearGradient5204"
       id="linearGradient5210"
       x1="19.667364"
       y1="4.2570662"
       x2="20.329933"
       y2="5.2845874"
       gradientUnits="userSpaceOnUse" />
    <radialGradient
       inkscape:collect="always"
       xlink:href="#linearGradient37935"
       id="radialGradient5212"
       gradientUnits="userSpaceOnUse"
       cx="8.7468252"
       cy="6.8283234"
       fx="8.7468252"
       fy="6.8283234"
       r="29.889715" />
  </defs>
  <sodipodi:namedview
     stroke="#c4a000"
     fill="#babdb6"
     id="base"
     pagecolor="#ffffff"
     bordercolor="#666666"
     borderopacity="0.25490196"
     inkscape:pageopacity="0.0"
     inkscape:pageshadow="2"
     inkscape:zoom="15.999999"
     inkscape:cx="24.213491"
     inkscape:cy="5.2995784"
     inkscape:current-layer="layer1"
     showgrid="false"
     inkscape:grid-bbox="true"
     inkscape:document-units="px"
     inkscape:showpageshadow="false"
     inkscape:window-width="1301"
     inkscape:window-height="744"
     inkscape:window-x="65"
     inkscape:window-y="24"
     inkscape:window-maximized="1" />
  <metadata
     id="metadata4">
    <rdf:RDF>
      <cc:Work
         rdf:about="">
        <dc:format>image/svg+xml</dc:format>
        <dc:type
           rdf:resource="http://purl.org/dc/dcmitype/StillImage" />
        <dc:creator>
          <cc:Agent>
            <dc:title>Jakub Steiner</dc:title>
          </cc:Agent>
        </dc:creator>
        <dc:source>http://jimmac.musichall.cz</dc:source>
        <cc:license
           rdf:resource="http://creativecommons.org/licenses/publicdomain/" />
        <dc:title>New Appointment</dc:title>
        <dc:subject>
          <rdf:Bag>
            <rdf:li>appointment</rdf:li>
            <rdf:li>new</rdf:li>
            <rdf:li>meeting</rdf:li>
            <rdf:li>rvsp</rdf:li>
          </rdf:Bag>
        </dc:subject>
      </cc:Work>
      <cc:License
         rdf:about="http://creativecommons.org/licenses/publicdomain/">
        <cc:permits
           rdf:resource="http://creativecommons.org/ns#Reproduction" />
        <cc:permits
           rdf:resource="http://creativecommons.org/ns#Distribution" />
        <cc:permits
           rdf:resource="http://creativecommons.org/ns#DerivativeWorks" />
      </cc:License>
    </rdf:RDF>
  </metadata>
  <g
     id="layer1"
     inkscape:label="Layer 1"
     inkscape:groupmode="layer">
    <path
       d="M 39.774755 19.008621 A 8.6620579 8.6620579 0 1 1  22.45064,19.008621 A 8.6620579 8.6620579 0 1 1  39.774755 19.008621 z"
       sodipodi:ry="8.6620579"
       sodipodi:rx="8.6620579"
       sodipodi:cy="19.008621"
       sodipodi:cx="31.112698"
       id="path4318"
       style="opacity:1;color:#000000;fill:url(#radialGradient3822);fill-opacity:1;fill-rule:evenodd;stroke:none;stroke-width:1px;stroke-linecap:round;stroke-linejoin:round;marker:none;marker-start:none;marker-mid:none;marker-end:none;stroke-miterlimit:4;stroke-dasharray:none;stroke-dashoffset:0;stroke-opacity:1;visibility:visible;display:inline;overflow:visible"
       sodipodi:type="arc"
       transform="matrix(2.563158,0.000000,0.000000,1.219602,-55.98414,14.04144)" />
    <path
       sodipodi:nodetypes="cccc"
       id="path14341"
       d="M 18.587591,1.403729 L 4.226755,18.096665 L 5.4854717,19.339844 L 18.587591,1.403729 z "
       style="color:#000000;fill:url(#linearGradient4307);fill-opacity:1;fill-rule:evenodd;stroke:none;stroke-width:1;stroke-linecap:butt;stroke-linejoin:miter;marker:none;marker-start:none;marker-mid:none;marker-end:none;stroke-miterlimit:4;stroke-dashoffset:0;stroke-opacity:1;visibility:visible;display:inline;overflow:visible" />
    <path
       sodipodi:nodetypes="cccc"
       id="path18921"
       d="M 18.467176,1.3138035 L 5.6605716,19.072612 L 7.4900985,20.687913 L 18.467176,1.3138035 z "
       style="fill:#fefefe;fill-opacity:1;fill-rule:evenodd;stroke:none;stroke-width:1;stroke-linecap:butt;stroke-linejoin:miter;stroke-miterlimit:4;stroke-opacity:1" />
    <path
       transform="matrix(1.431529,0.000000,0.000000,1.431529,0.569459,-1.654618)"
       d="M 31.160714 16.910715 A 14.910714 14.910714 0 1 1  1.3392859,16.910715 A 14.910714 14.910714 0 1 1  31.160714 16.910715 z"
       sodipodi:ry="14.910714"
       sodipodi:rx="14.910714"
       sodipodi:cy="16.910715"
       sodipodi:cx="16.25"
       id="path27786"
       style="fill:url(#radialGradient5212);fill-opacity:1;fill-rule:evenodd;stroke:#605773;stroke-width:0.69855404;stroke-linecap:round;stroke-linejoin:round;stroke-miterlimit:4;stroke-dashoffset:0;stroke-opacity:1"
       sodipodi:type="arc" />
    <path
       transform="matrix(1.163838,0.000000,0.000000,1.163838,4.824801,2.777556)"
       d="M 31.160714 16.910715 A 14.910714 14.910714 0 1 1  1.3392859,16.910715 A 14.910714 14.910714 0 1 1  31.160714 16.910715 z"
       sodipodi:ry="14.910714"
       sodipodi:rx="14.910714"
       sodipodi:cy="16.910715"
       sodipodi:cx="16.25"
       id="path35549"
       style="fill:url(#radialGradient4311);fill-opacity:1;fill-rule:evenodd;stroke:url(#linearGradient4313);stroke-width:0.71139598;stroke-linecap:round;stroke-linejoin:round;stroke-miterlimit:4;stroke-dashoffset:0;stroke-opacity:1"
       sodipodi:type="arc" />
    <path
       sodipodi:type="arc"
       style="opacity:1;color:#000000;fill:url(#radialGradient5202);fill-opacity:1;fill-rule:evenodd;stroke:url(#linearGradient5210);stroke-width:0.56498736;stroke-linecap:butt;stroke-linejoin:miter;marker:none;marker-start:none;marker-mid:none;marker-end:none;stroke-miterlimit:4;stroke-dasharray:none;stroke-dashoffset:0;stroke-opacity:1;visibility:visible;display:inline;overflow:visible"
       id="path4120"
       sodipodi:cx="23.375"
       sodipodi:cy="11.875"
       sodipodi:rx="8.5"
       sodipodi:ry="8.5"
       d="M 16.679382,6.6387137 A 8.5,8.5 0 0 1 23.332691,3.3751053 L 23.375,11.875 z"
       transform="matrix(1.769951,0.000000,0.000000,1.769951,-17.02424,1.610741)"
       sodipodi:start="3.8052902"
       sodipodi:end="4.7074114" />
    <path
       transform="matrix(2.073295,0.000000,0.000000,2.073295,-7.310224,-13.13682)"
       d="M 16.40625 17.28125 A 1.21875 1.21875 0 1 1  13.96875,17.28125 A 1.21875 1.21875 0 1 1  16.40625 17.28125 z"
       sodipodi:ry="1.21875"
       sodipodi:rx="1.21875"
       sodipodi:cy="17.28125"
       sodipodi:cx="15.1875"
       id="path34778"
       style="fill:#f3f3f3;fill-opacity:1;fill-rule:evenodd;stroke:#000000;stroke-width:0.48232403;stroke-linecap:round;stroke-linejoin:round;stroke-miterlimit:4;stroke-dashoffset:0;stroke-opacity:1;stroke-dasharray:none"
       sodipodi:type="arc" />
    <path
       id="path35559"
       d="M 22.176614,20.718014 L 13.155702,13.140282"
       style="fill:none;fill-opacity:0.75;fill-rule:evenodd;stroke:#000000;stroke-width:1;stroke-linecap:round;stroke-linejoin:miter;stroke-miterlimit:4;stroke-opacity:1;stroke-dasharray:none" />
    <path
       id="path35561"
       d="M 19.408614,29.776506 L 22.368655,25.283228"
       style="fill:none;fill-opacity:0.75;fill-rule:evenodd;stroke:#000000;stroke-width:2;stroke-linecap:round;stroke-linejoin:miter;stroke-miterlimit:4;stroke-opacity:1;stroke-dasharray:none"
       sodipodi:nodetypes="cc" />
    <path
       transform="matrix(2.749493,0.000000,0.000000,2.749493,-22.30073,-12.40939)"
       d="M 17.324117 7.6932044 A 0.61871845 0.61871845 0 1 1  16.08668,7.6932044 A 0.61871845 0.61871845 0 1 1  17.324117 7.6932044 z"
       sodipodi:ry="0.61871845"
       sodipodi:rx="0.61871845"
       sodipodi:cy="7.6932044"
       sodipodi:cx="16.705399"
       id="path35563"
       style="fill:#b6b9b1;fill-opacity:1;fill-rule:evenodd;stroke:none;stroke-width:1.36871839;stroke-linecap:round;stroke-linejoin:round;stroke-miterlimit:4;stroke-dashoffset:0;stroke-opacity:1;opacity:1"
       sodipodi:type="arc" />
    <path
       transform="matrix(2.749493,0.000000,0.000000,2.749493,-35.91004,1.199890)"
       d="M 17.324117 7.6932044 A 0.61871845 0.61871845 0 1 1  16.08668,7.6932044 A 0.61871845 0.61871845 0 1 1  17.324117 7.6932044 z"
       sodipodi:ry="0.61871845"
       sodipodi:rx="0.61871845"
       sodipodi:cy="7.6932044"
       sodipodi:cx="16.705399"
       id="path35567"
       style="fill:#b6b9b1;fill-opacity:1;fill-rule:evenodd;stroke:none;stroke-width:1.36871839;stroke-linecap:round;stroke-linejoin:round;stroke-miterlimit:4;stroke-dashoffset:0;stroke-opacity:1;opacity:1"
       sodipodi:type="arc" />
    <path
       transform="matrix(2.749493,0.000000,0.000000,2.749493,-8.691448,1.199890)"
       d="M 17.324117 7.6932044 A 0.61871845 0.61871845 0 1 1  16.08668,7.6932044 A 0.61871845 0.61871845 0 1 1  17.324117 7.6932044 z"
       sodipodi:ry="0.61871845"
       sodipodi:rx="0.61871845"
       sodipodi:cy="7.6932044"
       sodipodi:cx="16.705399"
       id="path35569"
       style="fill:#b6b9b1;fill-opacity:1;fill-rule:evenodd;stroke:none;stroke-width:1.36871839;stroke-linecap:round;stroke-linejoin:round;stroke-miterlimit:4;stroke-dashoffset:0;stroke-opacity:1;opacity:1"
       sodipodi:type="arc" />
    <path
       sodipodi:type="arc"
       style="fill:none;fill-opacity:1;fill-rule:evenodd;stroke:url(#radialGradient4309);stroke-width:0.73656511;stroke-linecap:round;stroke-linejoin:round;stroke-miterlimit:4;stroke-dashoffset:0;stroke-opacity:1"
       id="path10651"
       sodipodi:cx="16.25"
       sodipodi:cy="16.910715"
       sodipodi:rx="14.910714"
       sodipodi:ry="14.910714"
       d="M 31.160714 16.910715 A 14.910714 14.910714 0 1 1  1.3392859,16.910715 A 14.910714 14.910714 0 1 1  31.160714 16.910715 z"
       transform="matrix(1.357654,0.000000,0.000000,1.357654,1.769896,-0.493735)" />
    <path
       sodipodi:type="arc"
       style="color:#000000;fill:url(#radialGradient278);fill-opacity:1;fill-rule:nonzero;stroke:none;stroke-width:1.25000024;stroke-linecap:butt;stroke-linejoin:round;marker:none;marker-start:none;marker-mid:none;marker-end:none;stroke-miterlimit:4;stroke-dashoffset:0;stroke-opacity:1;visibility:visible;display:block"
       id="path12511"
       sodipodi:cx="55"
       sodipodi:cy="125"
       sodipodi:rx="14.375"
       sodipodi:ry="14.375"
       d="M 69.375 125 A 14.375 14.375 0 1 1  40.625,125 A 14.375 14.375 0 1 1  69.375 125 z"
       transform="matrix(0.611127,0.000000,0.000000,0.611127,5.544052,-66.92818)"
       inkscape:export-filename="/home/jimmac/ximian_art/icons/nautilus/suse93/stock_new-16.png"
       inkscape:export-xdpi="33.852203"
       inkscape:export-ydpi="33.852203" />
    <path
       transform="matrix(2.749493,0,0,2.749493,-22.691744,14.657026)"
       d="m 17.324117,7.6932044 a 0.61871845,0.61871845 0 1 1 -1.237437,0 0.61871845,0.61871845 0 1 1 1.237437,0 z"
       sodipodi:ry="0.61871845"
       sodipodi:rx="0.61871845"
       sodipodi:cy="7.6932044"
       sodipodi:cx="16.705399"
       id="path35565"
       style="fill:#b6b9b1;fill-opacity:1;fill-rule:evenodd;stroke:none"
       sodipodi:type="arc" />
    <path
       inkscape:connector-curvature="0"
       id="path3276"
       style="font-size:19.89972496px;font-style:normal;font-weight:normal;line-height:125%;letter-spacing:0px;word-spacing:0px;fill:#ffffff;fill-opacity:1;stroke:#ffffff;stroke-width:2;stroke-linecap:round;stroke-linejoin:round;stroke-miterlimit:4;stroke-opacity:1;font-family:Sans"
       d="m 4.8533161,32.211239 1.9724826,0 0,8.813013 c -3.7e-6,1.55467 0.2817792,2.675324 0.8453496,3.361965 0.5635613,0.680168 1.4769267,1.020251 2.7400987,1.020249 1.25668,2e-6 2.166806,-0.340081 2.730382,-1.020249 0.563556,-0.686641 0.845339,-1.807295 0.84535,-3.361965 l 0,-8.813013 1.972482,0 0,9.055929 c -1.2e-5,1.891514 -0.469651,3.319862 -1.408916,4.285048 -0.93281,0.965189 -2.312574,1.447783 -4.139298,1.447783 -1.8332157,0 -3.2194581,-0.482594 -4.1587314,-1.447783 C 5.3197138,44.58703 4.8533144,43.158682 4.8533161,41.267168 l 0,-9.055929" />
    <path
       inkscape:connector-curvature="0"
       id="path3278"
       style="font-size:19.89972496px;font-style:normal;font-weight:normal;line-height:125%;letter-spacing:0px;word-spacing:0px;fill:#ffffff;fill-opacity:1;stroke:#ffffff;stroke-width:2;stroke-linecap:round;stroke-linejoin:round;stroke-miterlimit:4;stroke-opacity:1;font-family:Sans"
       d="m 28.348206,32.687355 0,1.914183 c -0.744954,-0.356265 -1.447791,-0.621854 -2.108515,-0.796767 -0.660741,-0.174886 -1.298801,-0.262336 -1.914183,-0.26235 -1.068838,1.4e-5 -1.894754,0.207302 -2.477749,0.621867 -0.576525,0.41459 -0.864786,1.004067 -0.864783,1.768432 -3e-6,0.64131 0.191091,1.127143 0.573283,1.4575 0.388663,0.323898 1.12065,0.586247 2.195966,0.78705 l 1.185433,0.242916 c 1.463968,0.278552 2.542517,0.770863 3.235649,1.476933 0.699588,0.699606 1.049388,1.638882 1.049399,2.817832 -1.1e-5,1.40568 -0.472889,2.471273 -1.418633,3.196782 -0.939286,0.725511 -2.319051,1.088266 -4.139298,1.088266 -0.686649,0 -1.418637,-0.07773 -2.195966,-0.2332 -0.770858,-0.155466 -1.570862,-0.385427 -2.400015,-0.689883 l 0,-2.021066 c 0.796764,0.446969 1.577335,0.783813 2.341715,1.010533 0.764373,0.226724 1.515795,0.340085 2.254266,0.340083 1.120648,2e-6 1.98543,-0.220242 2.594349,-0.660733 0.608902,-0.440486 0.913357,-1.068829 0.913366,-1.885032 -9e-6,-0.712551 -0.220253,-1.269639 -0.660733,-1.671266 -0.434019,-0.401616 -1.149812,-0.702832 -2.147382,-0.90365 l -1.19515,-0.2332 c -1.463981,-0.291493 -2.523096,-0.748175 -3.177348,-1.370049 -0.654257,-0.621858 -0.981385,-1.48664 -0.981383,-2.594349 -2e-6,-1.282587 0.450203,-2.293119 1.350616,-3.031599 0.906885,-0.738452 2.153855,-1.107684 3.740915,-1.107699 0.680159,1.5e-5 1.37328,0.06155 2.079366,0.184616 0.706068,0.123093 1.428339,0.307709 2.166815,0.55385" />
    <path
       inkscape:connector-curvature="0"
       id="path3280"
       style="font-size:19.89972496px;font-style:normal;font-weight:normal;line-height:125%;letter-spacing:0px;word-spacing:0px;fill:#ffffff;fill-opacity:1;stroke:#ffffff;stroke-width:2;stroke-linecap:round;stroke-linejoin:round;stroke-miterlimit:4;stroke-opacity:1;font-family:Sans"
       d="m 43.146684,33.328655 0,2.069649 c -0.660746,-0.615377 -1.366822,-1.075298 -2.118233,-1.379766 -0.744954,-0.304442 -1.538481,-0.45667 -2.380582,-0.456683 -1.658317,1.3e-5 -2.92796,0.508518 -3.808932,1.525516 -0.880981,1.010543 -1.321469,2.474519 -1.321466,4.391931 -3e-6,1.910949 0.440485,3.374925 1.321466,4.391932 0.880972,1.010535 2.150615,1.515801 3.808932,1.515799 0.842101,2e-6 1.635628,-0.152226 2.380582,-0.456683 0.751411,-0.304453 1.457487,-0.764375 2.118233,-1.379766 l 0,2.050216 c -0.686657,0.4664 -1.415406,0.8162 -2.186249,1.049399 -0.764388,0.2332 -1.574109,0.3498 -2.429166,0.3498 -2.195972,0 -3.925536,-0.670449 -5.188698,-2.011349 -1.263168,-1.347374 -1.89475,-3.183822 -1.894749,-5.509348 -10e-7,-2.331989 0.631581,-4.168437 1.894749,-5.509347 1.263162,-1.347363 2.992726,-2.021051 5.188698,-2.021066 0.868013,1.5e-5 1.684212,0.116614 2.448599,0.3498 0.770844,0.226736 1.493115,0.570058 2.166816,1.029966" />
    <path
       inkscape:connector-curvature="0"
       id="path3283"
       style="font-size:19.89972496px;font-style:normal;font-weight:normal;line-height:125%;letter-spacing:0px;word-spacing:0px;fill:#000000;fill-opacity:1;stroke:none;font-family:Sans"
       d="m 4.8533161,32.211239 1.9724826,0 0,8.813013 c -3.7e-6,1.55467 0.2817792,2.675324 0.8453496,3.361965 0.5635613,0.680168 1.4769267,1.020251 2.7400987,1.020249 1.25668,2e-6 2.166806,-0.340081 2.730382,-1.020249 0.563556,-0.686641 0.845339,-1.807295 0.84535,-3.361965 l 0,-8.813013 1.972482,0 0,9.055929 c -1.2e-5,1.891514 -0.469651,3.319862 -1.408916,4.285048 -0.93281,0.965189 -2.312574,1.447783 -4.139298,1.447783 -1.8332157,0 -3.2194581,-0.482594 -4.1587314,-1.447783 C 5.3197138,44.58703 4.8533144,43.158682 4.8533161,41.267168 l 0,-9.055929" />
    <path
       inkscape:connector-curvature="0"
       id="path3285"
       style="font-size:19.89972496px;font-style:normal;font-weight:normal;line-height:125%;letter-spacing:0px;word-spacing:0px;fill:#000000;fill-opacity:1;stroke:none;font-family:Sans"
       d="m 28.348206,32.687355 0,1.914183 c -0.744954,-0.356265 -1.447791,-0.621854 -2.108515,-0.796767 -0.660741,-0.174886 -1.298801,-0.262336 -1.914183,-0.26235 -1.068838,1.4e-5 -1.894754,0.207302 -2.477749,0.621867 -0.576525,0.41459 -0.864786,1.004067 -0.864783,1.768432 -3e-6,0.64131 0.191091,1.127143 0.573283,1.4575 0.388663,0.323898 1.12065,0.586247 2.195966,0.78705 l 1.185433,0.242916 c 1.463968,0.278552 2.542517,0.770863 3.235649,1.476933 0.699588,0.699606 1.049388,1.638882 1.049399,2.817832 -1.1e-5,1.40568 -0.472889,2.471273 -1.418633,3.196782 -0.939286,0.725511 -2.319051,1.088266 -4.139298,1.088266 -0.686649,0 -1.418637,-0.07773 -2.195966,-0.2332 -0.770858,-0.155466 -1.570862,-0.385427 -2.400015,-0.689883 l 0,-2.021066 c 0.796764,0.446969 1.577335,0.783813 2.341715,1.010533 0.764373,0.226724 1.515795,0.340085 2.254266,0.340083 1.120648,2e-6 1.98543,-0.220242 2.594349,-0.660733 0.608902,-0.440486 0.913357,-1.068829 0.913366,-1.885032 -9e-6,-0.712551 -0.220253,-1.269639 -0.660733,-1.671266 -0.434019,-0.401616 -1.149812,-0.702832 -2.147382,-0.90365 l -1.19515,-0.2332 c -1.463981,-0.291493 -2.523096,-0.748175 -3.177348,-1.370049 -0.654257,-0.621858 -0.981385,-1.48664 -0.981383,-2.594349 -2e-6,-1.282587 0.450203,-2.293119 1.350616,-3.031599 0.906885,-0.738452 2.153855,-1.107684 3.740915,-1.107699 0.680159,1.5e-5 1.37328,0.06155 2.079366,0.184616 0.706068,0.123093 1.428339,0.307709 2.166815,0.55385" />
    <path
       inkscape:connector-curvature="0"
       id="path3287"
       style="font-size:19.89972496px;font-style:normal;font-weight:normal;line-height:125%;letter-spacing:0px;word-spacing:0px;fill:#000000;fill-opacity:1;stroke:none;font-family:Sans"
       d="m 43.146684,33.328655 0,2.069649 c -0.660746,-0.615377 -1.366822,-1.075298 -2.118233,-1.379766 -0.744954,-0.304442 -1.538481,-0.45667 -2.380582,-0.456683 -1.658317,1.3e-5 -2.92796,0.508518 -3.808932,1.525516 -0.880981,1.010543 -1.321469,2.474519 -1.321466,4.391931 -3e-6,1.910949 0.440485,3.374925 1.321466,4.391932 0.880972,1.010535 2.150615,1.515801 3.808932,1.515799 0.842101,2e-6 1.635628,-0.152226 2.380582,-0.456683 0.751411,-0.304453 1.457487,-0.764375 2.118233,-1.379766 l 0,2.050216 c -0.686657,0.4664 -1.415406,0.8162 -2.186249,1.049399 -0.764388,0.2332 -1.574109,0.3498 -2.429166,0.3498 -2.195972,0 -3.925536,-0.670449 -5.188698,-2.011349 -1.263168,-1.347374 -1.89475,-3.183822 -1.894749,-5.509348 -10e-7,-2.331989 0.631581,-4.168437 1.894749,-5.509347 1.263162,-1.347363 2.992726,-2.021051 5.188698,-2.021066 0.868013,1.5e-5 1.684212,0.116614 2.448599,0.3498 0.770844,0.226736 1.493115,0.570058 2.166816,1.029966" />
  </g>
</svg>
