<?xml version="1.0" encoding="UTF-8" standalone="no"?>
<!-- Created with Inkscape (http://www.inkscape.org/) -->

<svg
   xmlns:dc="http://purl.org/dc/elements/1.1/"
   xmlns:cc="http://creativecommons.org/ns#"
   xmlns:rdf="http://www.w3.org/1999/02/22-rdf-syntax-ns#"
   xmlns:svg="http://www.w3.org/2000/svg"
   xmlns="http://www.w3.org/2000/svg"
   xmlns:xlink="http://www.w3.org/1999/xlink"
   xmlns:sodipodi="http://sodipodi.sourceforge.net/DTD/sodipodi-0.dtd"
   xmlns:inkscape="http://www.inkscape.org/namespaces/inkscape"
   width="377.13074"
   height="193.162"
   id="svg2"
   version="1.1"
   inkscape:version="0.48.3.1 r9886"
   sodipodi:docname="timer.svg"
   inkscape:export-filename="/home/caiosba/The Jibe/Timer/hangout-timer/res/timerhi.png"
   inkscape:export-xdpi="300"
   inkscape:export-ydpi="300">
  <defs
     id="defs4">
    <filter
       inkscape:collect="always"
       id="filter4024"
       x="-0.013489452"
       width="1.0269789"
       y="-0.10867983"
       height="1.2173597"
       color-interpolation-filters="sRGB">
      <feGaussianBlur
         inkscape:collect="always"
         stdDeviation="2.0107152"
         id="feGaussianBlur4026" />
    </filter>
    <filter
       inkscape:collect="always"
       id="filter4037"
       color-interpolation-filters="sRGB">
      <feGaussianBlur
         inkscape:collect="always"
         stdDeviation="2.69"
         id="feGaussianBlur4039" />
    </filter>
    <radialGradient
       r="29.889715"
       fy="6.8283234"
       fx="8.7468252"
       cy="6.8283234"
       cx="8.7468252"
       gradientUnits="userSpaceOnUse"
       id="radialGradient5212"
       xlink:href="#linearGradient37935"
       inkscape:collect="always" />
    <linearGradient
       gradientUnits="userSpaceOnUse"
       y2="5.2845874"
       x2="20.329933"
       y1="4.2570662"
       x1="19.667364"
       id="linearGradient5210"
       xlink:href="#linearGradient5204"
       inkscape:collect="always" />
    <radialGradient
       gradientUnits="userSpaceOnUse"
       gradientTransform="matrix(3.63042,0,0,3.742066,-61.48607,-29.18618)"
       r="3.3478093"
       fy="10.972863"
       fx="23.375"
       cy="10.972863"
       cx="23.375"
       id="radialGradient5202"
       xlink:href="#linearGradient5196"
       inkscape:collect="always" />
    <linearGradient
       y2="25.884274"
       x2="22.218424"
       y1="7.7893324"
       x1="6.342216"
       gradientUnits="userSpaceOnUse"
       id="linearGradient4313"
       xlink:href="#linearGradient42174"
       inkscape:collect="always" />
    <radialGradient
       r="29.292715"
       fy="10.045444"
       fx="11.901996"
       cy="10.045444"
       cx="11.901996"
       gradientUnits="userSpaceOnUse"
       id="radialGradient4311"
       xlink:href="#linearGradient2145"
       inkscape:collect="always" />
    <radialGradient
       r="15.532059"
       fy="10.58397"
       fx="11.3292"
       cy="10.58397"
       cx="11.3292"
       gradientUnits="userSpaceOnUse"
       id="radialGradient4309"
       xlink:href="#linearGradient10653"
       inkscape:collect="always" />
    <linearGradient
       y2="52.090679"
       x2="9.8855038"
       y1="37.197018"
       x1="8.9156475"
       gradientTransform="matrix(3.123841,0,0,0.969691,-31.88758,-19.59492)"
       gradientUnits="userSpaceOnUse"
       id="linearGradient4307"
       xlink:href="#linearGradient2152"
       inkscape:collect="always" />
    <radialGradient
       gradientUnits="userSpaceOnUse"
       r="8.6620579"
       fy="19.008621"
       fx="31.112698"
       cy="19.008621"
       cx="31.112698"
       id="radialGradient3822"
       xlink:href="#linearGradient3816"
       inkscape:collect="always" />
    <linearGradient
       id="linearGradient3816"
       inkscape:collect="always">
      <stop
         id="stop3818"
         offset="0"
         style="stop-color:#000000;stop-opacity:1;" />
      <stop
         id="stop3820"
         offset="1"
         style="stop-color:#000000;stop-opacity:0;" />
    </linearGradient>
    <linearGradient
       id="linearGradient2152">
      <stop
         style="stop-color:#9aa29a;stop-opacity:1.0000000;"
         offset="0.0000000"
         id="stop2154" />
      <stop
         style="stop-color:#b5beb5;stop-opacity:1.0000000;"
         offset="1.0000000"
         id="stop2156" />
    </linearGradient>
    <linearGradient
       id="linearGradient37935">
      <stop
         style="stop-color:#9497b3;stop-opacity:1.0000000;"
         offset="0.0000000"
         id="stop37937" />
      <stop
         style="stop-color:#4c4059;stop-opacity:1.0000000;"
         offset="1.0000000"
         id="stop37939" />
    </linearGradient>
    <linearGradient
       id="linearGradient2145">
      <stop
         id="stop2147"
         offset="0.0000000"
         style="stop-color:#fffffd;stop-opacity:1.0000000;" />
      <stop
         id="stop2149"
         offset="1.0000000"
         style="stop-color:#cbcbc9;stop-opacity:1.0000000;" />
    </linearGradient>
    <linearGradient
       id="linearGradient42174">
      <stop
         id="stop42176"
         offset="0.0000000"
         style="stop-color:#a0a0a0;stop-opacity:1.0000000;" />
      <stop
         id="stop42178"
         offset="1.0000000"
         style="stop-color:#ffffff;stop-opacity:1.0000000;" />
    </linearGradient>
    <linearGradient
       id="linearGradient10653">
      <stop
         id="stop10655"
         offset="0.0000000"
         style="stop-color:#f3f4ff;stop-opacity:1.0000000;" />
      <stop
         id="stop10657"
         offset="1.0000000"
         style="stop-color:#9193af;stop-opacity:1.0000000;" />
    </linearGradient>
    <radialGradient
       r="14.375"
       fy="125"
       fx="55"
       cy="125"
       cx="55"
       gradientUnits="userSpaceOnUse"
       id="radialGradient278"
       xlink:href="#linearGradient12512"
       inkscape:collect="always" />
    <linearGradient
       id="linearGradient12512">
      <stop
         id="stop12513"
         offset="0.0000000"
         style="stop-color:#ffffff;stop-opacity:1.0000000;" />
      <stop
         id="stop12517"
         offset="0.50000000"
         style="stop-color:#fff520;stop-opacity:0.89108908;" />
      <stop
         id="stop12514"
         offset="1.0000000"
         style="stop-color:#fff300;stop-opacity:0.0000000;" />
    </linearGradient>
    <linearGradient
       id="linearGradient5196"
       inkscape:collect="always">
      <stop
         id="stop5198"
         offset="0"
         style="stop-color:#c4a000;stop-opacity:1;" />
      <stop
         id="stop5200"
         offset="1"
         style="stop-color:#c4a000;stop-opacity:0;" />
    </linearGradient>
    <linearGradient
       id="linearGradient5204"
       inkscape:collect="always">
      <stop
         id="stop5206"
         offset="0"
         style="stop-color:#c4a000;stop-opacity:1;" />
      <stop
         id="stop5208"
         offset="1"
         style="stop-color:#c4a000;stop-opacity:0;" />
    </linearGradient>
    <inkscape:perspective
       id="perspective59"
       inkscape:persp3d-origin="24 : 16 : 1"
       inkscape:vp_z="48 : 24 : 1"
       inkscape:vp_y="0 : 1000 : 0"
       inkscape:vp_x="0 : 24 : 1"
       sodipodi:type="inkscape:persp3d" />
    <linearGradient
       inkscape:collect="always"
       xlink:href="#linearGradient2152"
       id="linearGradient4324"
       gradientUnits="userSpaceOnUse"
       gradientTransform="matrix(2.3401566,0,0,0.72642264,139.60803,121.15663)"
       x1="8.9156475"
       y1="37.197018"
       x2="9.8855038"
       y2="52.090679" />
  </defs>
  <sodipodi:namedview
     id="base"
     pagecolor="#ffffff"
     bordercolor="#666666"
     borderopacity="1.0"
     inkscape:pageopacity="0.0"
     inkscape:pageshadow="2"
     inkscape:zoom="1.506109"
     inkscape:cx="190.8312"
     inkscape:cy="96.754612"
     inkscape:document-units="px"
     inkscape:current-layer="layer1"
     showgrid="false"
     inkscape:window-width="1301"
     inkscape:window-height="744"
     inkscape:window-x="65"
     inkscape:window-y="24"
     inkscape:window-maximized="1"
     showguides="false"
     inkscape:guide-bbox="true"
     fit-margin-top="0"
     fit-margin-left="0"
     fit-margin-right="0"
     fit-margin-bottom="0">
    <sodipodi:guide
       orientation="0,1"
       position="377.13049,-53.663329"
       id="guide4045" />
    <sodipodi:guide
       orientation="0,1"
       position="351.64753,-176.80696"
       id="guide4049" />
  </sodipodi:namedview>
  <metadata
     id="metadata7">
    <rdf:RDF>
      <cc:Work
         rdf:about="">
        <dc:format>image/svg+xml</dc:format>
        <dc:type
           rdf:resource="http://purl.org/dc/dcmitype/StillImage" />
        <dc:title></dc:title>
      </cc:Work>
    </rdf:RDF>
  </metadata>
  <g
     inkscape:label="Camada 1"
     inkscape:groupmode="layer"
     id="layer1"
     transform="translate(-143.57525,-122.169)">
    <path
       style="fill:#2d2d2d;fill-opacity:0.82246375;stroke:#2d2d2d;stroke-width:3.24000001;stroke-linecap:butt;stroke-linejoin:miter;stroke-miterlimit:4;stroke-opacity:1;filter:url(#filter4037)"
       d="m 151.63588,130.23959 0,177 361,0 0,-177 -361,0 z m 2.1875,1.0625 356.625,0 0,174.875 -356.625,0 0,-174.875 z"
       id="rect4030"
       inkscape:connector-curvature="0" />
    <rect
       style="fill:#0e0e0e;fill-opacity:0.61956518;stroke:#000000;stroke-width:3.24000001;stroke-linecap:butt;stroke-linejoin:miter;stroke-miterlimit:4;stroke-opacity:1;stroke-dasharray:none"
       id="rect3085"
       width="360.98007"
       height="176.98558"
       x="151.64584"
       y="130.2468"
       ry="0"
       rx="0" />
    <rect
       y="174.68413"
       x="399.2793"
       height="130.89645"
       width="111.66772"
       id="rect4051"
       style="fill:#1b1b1b;fill-opacity:1;stroke:none" />
    <rect
       y="210.77556"
       x="402.61319"
       height="40.988918"
       width="104.99995"
       id="rect4053"
       style="fill:#373737;fill-opacity:1;stroke:none" />
    <rect
       style="fill:#373737;fill-opacity:1;stroke:none"
       id="rect4055"
       width="104.99995"
       height="40.988918"
       x="402.61319"
       y="256.83884" />
    <rect
       style="opacity:0.8;fill:#2d2d2d;fill-opacity:1;stroke:none;filter:url(#filter4024)"
       id="rect4010"
       width="357.73999"
       height="44.403057"
       x="153.26588"
       y="133.86713"
       ry="0"
       rx="0" />
    <rect
       rx="0"
       ry="0"
       y="131.86713"
       x="153.26588"
       height="44.403057"
       width="357.73999"
       id="rect4002"
       style="fill:#00394d;fill-opacity:1;stroke:none" />
    <path
       d="m 39.774755,19.008621 c 0,4.783923 -3.878135,8.662058 -8.662057,8.662058 -4.783923,0 -8.662058,-3.878135 -8.662058,-8.662058 0,-4.783922 3.878135,-8.662058 8.662058,-8.662058 4.783922,0 8.662057,3.878136 8.662057,8.662058 z"
       sodipodi:ry="8.6620579"
       sodipodi:rx="8.6620579"
       sodipodi:cy="19.008621"
       sodipodi:cx="31.112698"
       id="path4318"
       style="color:#000000;fill:url(#radialGradient3822);fill-opacity:1;fill-rule:evenodd;stroke:none;stroke-width:1px;marker:none;visibility:visible;display:inline;overflow:visible"
       sodipodi:type="arc"
       transform="matrix(1.9201333,0,0,0.91363796,121.55663,146.35457)" />
    <path
       inkscape:connector-curvature="0"
       sodipodi:nodetypes="cccc"
       id="path14341"
       d="m 177.42039,136.8873 -10.7581,12.50515 0.94294,0.9313 9.81516,-13.43645 z"
       style="color:#000000;fill:url(#linearGradient4324);fill-opacity:1;fill-rule:evenodd;stroke:none;stroke-width:1;marker:none;visibility:visible;display:inline;overflow:visible" />
    <path
       inkscape:connector-curvature="0"
       sodipodi:nodetypes="cccc"
       id="path18921"
       d="m 177.33019,136.81994 -9.59379,13.30362 1.37055,1.21006 8.22324,-14.51368 z"
       style="fill:#fefefe;fill-opacity:1;fill-rule:evenodd;stroke:none" />
    <path
       transform="matrix(1.0723984,0,0,1.0723984,163.92251,134.59621)"
       d="m 31.160714,16.910715 c 0,8.23496 -6.675754,14.910714 -14.910714,14.910714 -8.23496,0 -14.9107141,-6.675754 -14.9107141,-14.910714 0,-8.2349599 6.6757541,-14.910714 14.9107141,-14.910714 8.23496,0 14.910714,6.6757541 14.910714,14.910714 z"
       sodipodi:ry="14.910714"
       sodipodi:rx="14.910714"
       sodipodi:cy="16.910715"
       sodipodi:cx="16.25"
       id="path27786"
       style="fill:url(#radialGradient5212);fill-opacity:1;fill-rule:evenodd;stroke:#605773;stroke-width:0.69855404;stroke-linecap:round;stroke-linejoin:round;stroke-miterlimit:4;stroke-opacity:1;stroke-dashoffset:0"
       sodipodi:type="arc" />
    <path
       transform="matrix(0.87186359,0,0,0.87186359,167.1103,137.91647)"
       d="m 31.160714,16.910715 c 0,8.23496 -6.675754,14.910714 -14.910714,14.910714 -8.23496,0 -14.9107141,-6.675754 -14.9107141,-14.910714 0,-8.2349599 6.6757541,-14.910714 14.9107141,-14.910714 8.23496,0 14.910714,6.6757541 14.910714,14.910714 z"
       sodipodi:ry="14.910714"
       sodipodi:rx="14.910714"
       sodipodi:cy="16.910715"
       sodipodi:cx="16.25"
       id="path35549"
       style="fill:url(#radialGradient4311);fill-opacity:1;fill-rule:evenodd;stroke:url(#linearGradient4313);stroke-width:0.71139598;stroke-linecap:round;stroke-linejoin:round;stroke-miterlimit:4;stroke-opacity:1;stroke-dashoffset:0"
       sodipodi:type="arc" />
    <path
       sodipodi:type="arc"
       style="color:#000000;fill:url(#radialGradient5202);fill-opacity:1;fill-rule:evenodd;stroke:url(#linearGradient5210);stroke-width:0.56498736;stroke-linecap:butt;stroke-linejoin:miter;stroke-miterlimit:4;stroke-opacity:1;stroke-dasharray:none;stroke-dashoffset:0;marker:none;visibility:visible;display:inline;overflow:visible"
       id="path4120"
       sodipodi:cx="23.375"
       sodipodi:cy="11.875"
       sodipodi:rx="8.5"
       sodipodi:ry="8.5"
       d="M 16.679382,6.6387137 C 18.281221,4.590448 20.732476,3.3880482 23.332691,3.3751053 L 23.375,11.875 z"
       transform="matrix(1.3259198,0,0,1.3259198,150.74258,137.04238)"
       sodipodi:start="3.8052902"
       sodipodi:end="4.7074114" />
    <path
       transform="matrix(1.5531633,0,0,1.5531633,158.01962,125.99457)"
       d="m 16.40625,17.28125 c 0,0.673097 -0.545653,1.21875 -1.21875,1.21875 -0.673097,0 -1.21875,-0.545653 -1.21875,-1.21875 0,-0.673097 0.545653,-1.21875 1.21875,-1.21875 0.673097,0 1.21875,0.545653 1.21875,1.21875 z"
       sodipodi:ry="1.21875"
       sodipodi:rx="1.21875"
       sodipodi:cy="17.28125"
       sodipodi:cx="15.1875"
       id="path34778"
       style="fill:#f3f3f3;fill-opacity:1;fill-rule:evenodd;stroke:#000000;stroke-width:0.48232403;stroke-linecap:round;stroke-linejoin:round;stroke-miterlimit:4;stroke-opacity:1;stroke-dasharray:none;stroke-dashoffset:0"
       sodipodi:type="arc" />
    <path
       inkscape:connector-curvature="0"
       id="path35559"
       d="m 180.10903,151.35617 -6.75782,-5.67669"
       style="fill:none;stroke:#000000;stroke-width:0.74912798;stroke-linecap:round;stroke-linejoin:miter;stroke-miterlimit:4;stroke-opacity:1;stroke-dasharray:none" />
    <path
       inkscape:connector-curvature="0"
       id="path35561"
       d="m 178.03545,158.14214 2.21744,-3.36604"
       style="fill:none;stroke:#000000;stroke-width:1.49825597;stroke-linecap:round;stroke-linejoin:miter;stroke-miterlimit:4;stroke-opacity:1;stroke-dasharray:none"
       sodipodi:nodetypes="cc" />
    <path
       transform="matrix(2.0597221,0,0,2.0597221,146.78981,126.53951)"
       d="m 17.324117,7.6932044 c 0,0.3417088 -0.27701,0.6187184 -0.618718,0.6187184 -0.341709,0 -0.618719,-0.2770096 -0.618719,-0.6187184 0,-0.3417088 0.27701,-0.6187184 0.618719,-0.6187184 0.341708,0 0.618718,0.2770096 0.618718,0.6187184 z"
       sodipodi:ry="0.61871845"
       sodipodi:rx="0.61871845"
       sodipodi:cy="7.6932044"
       sodipodi:cx="16.705399"
       id="path35563"
       style="fill:#b6b9b1;fill-opacity:1;fill-rule:evenodd;stroke:none"
       sodipodi:type="arc" />
    <path
       transform="matrix(2.0597221,0,0,2.0597221,136.59469,136.7346)"
       d="m 17.324117,7.6932044 c 0,0.3417088 -0.27701,0.6187184 -0.618718,0.6187184 -0.341709,0 -0.618719,-0.2770096 -0.618719,-0.6187184 0,-0.3417088 0.27701,-0.6187184 0.618719,-0.6187184 0.341708,0 0.618718,0.2770096 0.618718,0.6187184 z"
       sodipodi:ry="0.61871845"
       sodipodi:rx="0.61871845"
       sodipodi:cy="7.6932044"
       sodipodi:cx="16.705399"
       id="path35567"
       style="fill:#b6b9b1;fill-opacity:1;fill-rule:evenodd;stroke:none"
       sodipodi:type="arc" />
    <path
       transform="matrix(2.0597221,0,0,2.0597221,156.9849,136.7346)"
       d="m 17.324117,7.6932044 c 0,0.3417088 -0.27701,0.6187184 -0.618718,0.6187184 -0.341709,0 -0.618719,-0.2770096 -0.618719,-0.6187184 0,-0.3417088 0.27701,-0.6187184 0.618719,-0.6187184 0.341708,0 0.618718,0.2770096 0.618718,0.6187184 z"
       sodipodi:ry="0.61871845"
       sodipodi:rx="0.61871845"
       sodipodi:cy="7.6932044"
       sodipodi:cx="16.705399"
       id="path35569"
       style="fill:#b6b9b1;fill-opacity:1;fill-rule:evenodd;stroke:none"
       sodipodi:type="arc" />
    <path
       sodipodi:type="arc"
       style="fill:none;stroke:url(#radialGradient4309);stroke-width:0.73656511;stroke-linecap:round;stroke-linejoin:round;stroke-miterlimit:4;stroke-opacity:1;stroke-dashoffset:0"
       id="path10651"
       sodipodi:cx="16.25"
       sodipodi:cy="16.910715"
       sodipodi:rx="14.910714"
       sodipodi:ry="14.910714"
       d="m 31.160714,16.910715 c 0,8.23496 -6.675754,14.910714 -14.910714,14.910714 -8.23496,0 -14.9107141,-6.675754 -14.9107141,-14.910714 0,-8.2349599 6.6757541,-14.910714 14.9107141,-14.910714 8.23496,0 14.910714,6.6757541 14.910714,14.910714 z"
       transform="matrix(1.0170566,0,0,1.0170566,164.82179,135.46586)" />
    <path
       sodipodi:type="arc"
       style="color:#000000;fill:url(#radialGradient278);fill-opacity:1;fill-rule:nonzero;stroke:none;stroke-width:1.25000024;marker:none;visibility:visible;display:block"
       id="path12511"
       sodipodi:cx="55"
       sodipodi:cy="125"
       sodipodi:rx="14.375"
       sodipodi:ry="14.375"
       d="m 69.375,125 c 0,7.93909 -6.435907,14.375 -14.375,14.375 -7.939093,0 -14.375,-6.43591 -14.375,-14.375 0,-7.93909 6.435907,-14.375 14.375,-14.375 7.939093,0 14.375,6.43591 14.375,14.375 z"
       transform="matrix(0.45781232,0,0,0.45781232,167.64911,85.697959)"
       inkscape:export-filename="/home/jimmac/ximian_art/icons/nautilus/suse93/stock_new-16.png"
       inkscape:export-xdpi="33.852203"
       inkscape:export-ydpi="33.852203" />
    <path
       transform="matrix(2.0597221,0,0,2.0597221,146.49689,146.81572)"
       d="m 17.324117,7.6932044 c 0,0.3417088 -0.27701,0.6187184 -0.618718,0.6187184 -0.341709,0 -0.618719,-0.2770096 -0.618719,-0.6187184 0,-0.3417088 0.27701,-0.6187184 0.618719,-0.6187184 0.341708,0 0.618718,0.2770096 0.618718,0.6187184 z"
       sodipodi:ry="0.61871845"
       sodipodi:rx="0.61871845"
       sodipodi:cy="7.6932044"
       sodipodi:cx="16.705399"
       id="path35565"
       style="fill:#b6b9b1;fill-opacity:1;fill-rule:evenodd;stroke:none"
       sodipodi:type="arc" />
    <path
       inkscape:connector-curvature="0"
       id="path3276"
       style="font-size:19.89972496px;font-style:normal;font-weight:normal;line-height:125%;letter-spacing:0px;word-spacing:0px;fill:#ffffff;fill-opacity:1;stroke:#ffffff;stroke-width:1.49825597;stroke-linecap:round;stroke-linejoin:round;stroke-miterlimit:4;stroke-opacity:1;font-family:Sans"
       d="m 167.13166,159.96607 1.47765,0 0,6.60207 c -1e-5,1.16465 0.21109,2.00416 0.63327,2.51855 0.42218,0.50953 1.10641,0.76429 2.05269,0.76429 0.94141,0 1.62321,-0.25476 2.0454,-0.76429 0.42218,-0.51439 0.63327,-1.3539 0.63328,-2.51855 l 0,-6.60207 1.47764,0 0,6.78405 c -1e-5,1.41699 -0.35183,2.487 -1.05546,3.21005 -0.69879,0.72305 -1.73241,1.08457 -3.10086,1.08457 -1.37332,0 -2.41179,-0.36152 -3.11543,-1.08457 -0.69878,-0.72305 -1.04818,-1.79306 -1.04818,-3.21005 l 0,-6.78405" />
    <path
       inkscape:connector-curvature="0"
       id="path3278"
       style="font-size:19.89972496px;font-style:normal;font-weight:normal;line-height:125%;letter-spacing:0px;word-spacing:0px;fill:#ffffff;fill-opacity:1;stroke:#ffffff;stroke-width:1.49825597;stroke-linecap:round;stroke-linejoin:round;stroke-miterlimit:4;stroke-opacity:1;font-family:Sans"
       d="m 184.73234,160.32274 0,1.43397 c -0.55806,-0.26689 -1.08458,-0.46585 -1.57954,-0.59688 -0.49498,-0.13101 -0.97297,-0.19652 -1.43397,-0.19653 -0.8007,1e-5 -1.41942,0.15529 -1.85615,0.46585 -0.43189,0.31058 -0.64784,0.75218 -0.64784,1.32479 0,0.48042 0.14316,0.84437 0.42947,1.09185 0.29115,0.24264 0.83951,0.43917 1.64506,0.5896 l 0.88804,0.18198 c 1.0967,0.20867 1.90467,0.57747 2.42391,1.10641 0.52408,0.52409 0.78613,1.22773 0.78614,2.11091 -1e-5,1.05304 -0.35426,1.8513 -1.06274,2.3948 -0.70365,0.5435 -1.73727,0.81525 -3.10087,0.81525 -0.51438,0 -1.06274,-0.0582 -1.64505,-0.17469 -0.57748,-0.11647 -1.17678,-0.28874 -1.79792,-0.51681 l 0,-1.51404 c 0.59687,0.33484 1.18162,0.58718 1.75424,0.75702 0.57261,0.16984 1.13553,0.25476 1.68873,0.25476 0.83951,0 1.48735,-0.16499 1.9435,-0.49497 0.45615,-0.32998 0.68423,-0.80069 0.68423,-1.41213 0,-0.53379 -0.165,-0.95112 -0.49497,-1.25199 -0.32514,-0.30086 -0.86136,-0.52651 -1.60867,-0.67695 l -0.89532,-0.1747 c -1.0967,-0.21836 -1.89012,-0.56048 -2.38024,-1.02634 -0.49012,-0.46585 -0.73518,-1.11368 -0.73518,-1.9435 0,-0.96082 0.33726,-1.71784 1.01179,-2.27106 0.67937,-0.55319 1.61351,-0.82979 2.80242,-0.8298 0.50953,1e-5 1.02876,0.0461 1.55771,0.1383 0.52894,0.0922 1.07001,0.23051 1.62322,0.4149" />
    <path
       inkscape:connector-curvature="0"
       id="path3280"
       style="font-size:19.89972496px;font-style:normal;font-weight:normal;line-height:125%;letter-spacing:0px;word-spacing:0px;fill:#ffffff;fill-opacity:1;stroke:#ffffff;stroke-width:1.49825597;stroke-linecap:round;stroke-linejoin:round;stroke-miterlimit:4;stroke-opacity:1;font-family:Sans"
       d="m 195.8183,160.80316 0,1.55043 c -0.49499,-0.461 -1.02393,-0.80554 -1.58683,-1.03362 -0.55807,-0.22807 -1.15252,-0.34211 -1.78336,-0.34212 -1.24229,1e-5 -2.19342,0.38095 -2.85338,1.14281 -0.65997,0.75703 -0.98995,1.85373 -0.98995,3.29012 0,1.43154 0.32998,2.52825 0.98995,3.29012 0.65996,0.75702 1.61109,1.13553 2.85338,1.13553 0.63084,0 1.22529,-0.11404 1.78336,-0.34212 0.5629,-0.22807 1.09184,-0.57261 1.58683,-1.03362 l 0,1.53587 c -0.5144,0.3494 -1.06032,0.61144 -1.63778,0.78614 -0.57263,0.1747 -1.17921,0.26204 -1.81976,0.26204 -1.64506,0 -2.94073,-0.50225 -3.887,-1.50675 -0.94627,-1.00936 -1.41941,-2.38509 -1.41941,-4.12721 0,-1.74696 0.47314,-3.12269 1.41941,-4.12721 0.94627,-1.00934 2.24194,-1.51402 3.887,-1.51403 0.65025,1e-5 1.26169,0.0873 1.83431,0.26204 0.57747,0.16986 1.11854,0.42705 1.62323,0.77158" />
    <path
       inkscape:connector-curvature="0"
       id="path3283"
       style="font-size:19.89972496px;font-style:normal;font-weight:normal;line-height:125%;letter-spacing:0px;word-spacing:0px;fill:#000000;fill-opacity:1;stroke:none;font-family:Sans"
       d="m 167.13166,159.96607 1.47765,0 0,6.60207 c -1e-5,1.16465 0.21109,2.00416 0.63327,2.51855 0.42218,0.50953 1.10641,0.76429 2.05269,0.76429 0.94141,0 1.62321,-0.25476 2.0454,-0.76429 0.42218,-0.51439 0.63327,-1.3539 0.63328,-2.51855 l 0,-6.60207 1.47764,0 0,6.78405 c -1e-5,1.41699 -0.35183,2.487 -1.05546,3.21005 -0.69879,0.72305 -1.73241,1.08457 -3.10086,1.08457 -1.37332,0 -2.41179,-0.36152 -3.11543,-1.08457 -0.69878,-0.72305 -1.04818,-1.79306 -1.04818,-3.21005 l 0,-6.78405" />
    <path
       inkscape:connector-curvature="0"
       id="path3285"
       style="font-size:19.89972496px;font-style:normal;font-weight:normal;line-height:125%;letter-spacing:0px;word-spacing:0px;fill:#000000;fill-opacity:1;stroke:none;font-family:Sans"
       d="m 184.73234,160.32274 0,1.43397 c -0.55806,-0.26689 -1.08458,-0.46585 -1.57954,-0.59688 -0.49498,-0.13101 -0.97297,-0.19652 -1.43397,-0.19653 -0.8007,1e-5 -1.41942,0.15529 -1.85615,0.46585 -0.43189,0.31058 -0.64784,0.75218 -0.64784,1.32479 0,0.48042 0.14316,0.84437 0.42947,1.09185 0.29115,0.24264 0.83951,0.43917 1.64506,0.5896 l 0.88804,0.18198 c 1.0967,0.20867 1.90467,0.57747 2.42391,1.10641 0.52408,0.52409 0.78613,1.22773 0.78614,2.11091 -1e-5,1.05304 -0.35426,1.8513 -1.06274,2.3948 -0.70365,0.5435 -1.73727,0.81525 -3.10087,0.81525 -0.51438,0 -1.06274,-0.0582 -1.64505,-0.17469 -0.57748,-0.11647 -1.17678,-0.28874 -1.79792,-0.51681 l 0,-1.51404 c 0.59687,0.33484 1.18162,0.58718 1.75424,0.75702 0.57261,0.16984 1.13553,0.25476 1.68873,0.25476 0.83951,0 1.48735,-0.16499 1.9435,-0.49497 0.45615,-0.32998 0.68423,-0.80069 0.68423,-1.41213 0,-0.53379 -0.165,-0.95112 -0.49497,-1.25199 -0.32514,-0.30086 -0.86136,-0.52651 -1.60867,-0.67695 l -0.89532,-0.1747 c -1.0967,-0.21836 -1.89012,-0.56048 -2.38024,-1.02634 -0.49012,-0.46585 -0.73518,-1.11368 -0.73518,-1.9435 0,-0.96082 0.33726,-1.71784 1.01179,-2.27106 0.67937,-0.55319 1.61351,-0.82979 2.80242,-0.8298 0.50953,1e-5 1.02876,0.0461 1.55771,0.1383 0.52894,0.0922 1.07001,0.23051 1.62322,0.4149" />
    <path
       inkscape:connector-curvature="0"
       id="path3287"
       style="font-size:19.89972496px;font-style:normal;font-weight:normal;line-height:125%;letter-spacing:0px;word-spacing:0px;fill:#000000;fill-opacity:1;stroke:none;font-family:Sans"
       d="m 195.8183,160.80316 0,1.55043 c -0.49499,-0.461 -1.02393,-0.80554 -1.58683,-1.03362 -0.55807,-0.22807 -1.15252,-0.34211 -1.78336,-0.34212 -1.24229,1e-5 -2.19342,0.38095 -2.85338,1.14281 -0.65997,0.75703 -0.98995,1.85373 -0.98995,3.29012 0,1.43154 0.32998,2.52825 0.98995,3.29012 0.65996,0.75702 1.61109,1.13553 2.85338,1.13553 0.63084,0 1.22529,-0.11404 1.78336,-0.34212 0.5629,-0.22807 1.09184,-0.57261 1.58683,-1.03362 l 0,1.53587 c -0.5144,0.3494 -1.06032,0.61144 -1.63778,0.78614 -0.57263,0.1747 -1.17921,0.26204 -1.81976,0.26204 -1.64506,0 -2.94073,-0.50225 -3.887,-1.50675 -0.94627,-1.00936 -1.41941,-2.38509 -1.41941,-4.12721 0,-1.74696 0.47314,-3.12269 1.41941,-4.12721 0.94627,-1.00934 2.24194,-1.51402 3.887,-1.51403 0.65025,1e-5 1.26169,0.0873 1.83431,0.26204 0.57747,0.16986 1.11854,0.42705 1.62323,0.77158" />
    <g
       style="font-size:19.4789257px;font-style:normal;font-weight:normal;line-height:125%;letter-spacing:0px;word-spacing:0px;fill:#ffffff;fill-opacity:1;stroke:none;font-family:Sans"
       id="text4327">
      <path
         d="m 409.80032,198.55399 0,-13.94342 5.25969,0 c 0.92574,2e-5 1.63274,0.0444 2.12099,0.13316 0.6848,0.11415 1.25864,0.33291 1.72153,0.65627 0.46286,0.31706 0.8338,0.76408 1.11281,1.34108 0.28532,0.57703 0.42799,1.21111 0.428,1.90224 -10e-6,1.18574 -0.37729,2.19075 -1.13183,3.01505 -0.75457,0.81797 -2.11784,1.22695 -4.08981,1.22694 l -3.57621,0 0,5.66868 -1.84517,0 m 1.84517,-7.31411 3.60474,0 c 1.19206,0 2.03856,-0.22192 2.53949,-0.66579 0.50091,-0.44384 0.75137,-1.06841 0.75138,-1.8737 -10e-6,-0.58334 -0.14902,-1.0811 -0.44702,-1.49326 -0.29169,-0.41848 -0.67848,-0.6943 -1.16037,-0.82747 -0.31071,-0.0824 -0.88455,-0.12364 -1.72153,-0.12365 l -3.56669,0 0,4.98387"
         style="letter-spacing:-0.69591588px;fill:#ffffff;font-family:Arial;-inkscape-font-specification:Arial"
         id="path3266" />
      <path
         d="m 421.87793,198.55399 0,-10.10089 1.54082,0 0,1.5313 c 0.39312,-0.7165 0.75455,-1.18889 1.08427,-1.41717 0.33606,-0.22826 0.70383,-0.34239 1.1033,-0.3424 0.57701,1e-5 1.16353,0.18389 1.75957,0.55165 l -0.58969,1.58837 c -0.4185,-0.24729 -0.83699,-0.37093 -1.25548,-0.37094 -0.37411,1e-5 -0.71017,0.11414 -1.00819,0.3424 -0.29802,0.22194 -0.51043,0.53264 -0.63725,0.9321 -0.19022,0.60872 -0.28534,1.27451 -0.28533,1.99735 l 0,5.28823 -1.71202,0"
         style="letter-spacing:-0.69591588px;fill:#ffffff;font-family:Arial;-inkscape-font-specification:Arial"
         id="path3268" />
      <path
         d="m 434.62134,195.30116 1.76908,0.21875 c -0.27901,1.03356 -0.79578,1.83567 -1.55033,2.40634 -0.75456,0.57067 -1.71836,0.856 -2.8914,0.856 -1.47741,0 -2.65046,-0.45336 -3.51914,-1.3601 -0.86235,-0.91307 -1.29353,-2.19074 -1.29352,-3.83301 -1e-5,-1.69932 0.43751,-3.01821 1.31254,-3.95665 0.87503,-0.93843 2.01003,-1.40765 3.40501,-1.40766 1.35058,1e-5 2.45388,0.45972 3.30989,1.37912 0.856,0.91943 1.284,2.21295 1.28401,3.88057 -10e-6,0.10146 -0.003,0.25364 -0.01,0.45654 l -7.53286,0 c 0.0634,1.10964 0.37727,1.95931 0.94161,2.549 0.56432,0.58969 1.26815,0.88454 2.11148,0.88454 0.62773,0 1.16353,-0.16486 1.60739,-0.49458 0.44385,-0.32972 0.79576,-0.85601 1.05575,-1.57886 m -5.62112,-2.76776 5.64014,0 c -0.0761,-0.84966 -0.29169,-1.48691 -0.64676,-1.91175 -0.54532,-0.65943 -1.25232,-0.98916 -2.121,-0.98916 -0.78626,0 -1.44888,0.26315 -1.98784,0.78942 -0.53263,0.5263 -0.82748,1.23013 -0.88454,2.11149"
         style="letter-spacing:-0.69591588px;fill:#ffffff;font-family:Arial;-inkscape-font-specification:Arial"
         id="path3270" />
      <path
         d="m 437.85354,202.42504 0,-13.97194 1.55984,0 0,1.31254 c 0.36776,-0.51359 0.78308,-0.89721 1.24596,-1.15085 0.46288,-0.25996 1.02404,-0.38995 1.68349,-0.38996 0.86234,1e-5 1.62323,0.22194 2.28268,0.66578 0.65944,0.44387 1.15719,1.07161 1.49326,1.88322 0.33605,0.80529 0.50408,1.68983 0.50409,2.65362 -10e-6,1.03356 -0.18706,1.96565 -0.56116,2.79629 -0.36777,0.82431 -0.90674,1.45839 -1.6169,1.90224 -0.70384,0.43752 -1.44571,0.65627 -2.22562,0.65627 -0.57068,0 -1.08428,-0.12047 -1.54081,-0.36142 -0.4502,-0.24095 -0.82114,-0.54531 -1.11281,-0.91308 l 0,4.91729 -1.71202,0 m 1.55033,-8.86443 c -10e-6,1.29987 0.26314,2.2605 0.78943,2.88189 0.52628,0.6214 1.16353,0.9321 1.91175,0.9321 0.76088,0 1.41082,-0.32021 1.94979,-0.96063 0.5453,-0.64676 0.81795,-1.64544 0.81796,-2.99603 -10e-6,-1.28717 -0.26632,-2.25097 -0.79894,-2.8914 -0.52629,-0.64041 -1.1572,-0.96062 -1.89272,-0.96063 -0.7292,1e-5 -1.37596,0.34241 -1.94029,1.02721 -0.55799,0.67847 -0.83699,1.66763 -0.83698,2.96749"
         style="letter-spacing:-0.69591588px;fill:#ffffff;font-family:Arial;-inkscape-font-specification:Arial"
         id="path3272" />
      <path
         d="m 456.13086,198.55399 0,-12.29798 -4.59391,0 0,-1.64544 11.05201,0 0,1.64544 -4.61293,0 0,12.29798 -1.84517,0"
         style="letter-spacing:-0.69591588px;fill:#ffffff;font-family:Arial;-inkscape-font-specification:Arial"
         id="path3274" />
      <path
         d="m 462.86319,186.57939 0,-1.96882 1.71201,0 0,1.96882 -1.71201,0 m 0,11.9746 0,-10.10089 1.71201,0 0,10.10089 -1.71201,0"
         style="letter-spacing:-0.69591588px;fill:#ffffff;font-family:Arial;-inkscape-font-specification:Arial"
         id="path3277" />
      <path
         d="m 466.49486,198.55399 0,-10.10089 1.5313,0 0,1.41717 c 0.31704,-0.49458 0.7387,-0.89088 1.26499,-1.1889 0.52628,-0.30435 1.12549,-0.45653 1.79762,-0.45654 0.74821,1e-5 1.36009,0.15536 1.83566,0.46605 0.48189,0.31071 0.82112,0.74505 1.0177,1.30303 0.79893,-1.17938 1.83882,-1.76907 3.11967,-1.76908 1.00183,1e-5 1.77224,0.279 2.31122,0.83698 0.53895,0.55166 0.80843,1.4045 0.80845,2.55852 l 0,6.93366 -1.7025,0 0,-6.36299 c -2e-5,-0.6848 -0.0571,-1.17621 -0.17121,-1.47424 -0.1078,-0.30435 -0.30754,-0.54847 -0.5992,-0.73236 -0.29169,-0.18387 -0.63409,-0.27582 -1.02721,-0.27583 -0.71018,1e-5 -1.29987,0.23779 -1.76908,0.71334 -0.46923,0.46923 -0.70384,1.22379 -0.70383,2.26367 l 0,5.86841 -1.71202,0 0,-6.56273 c 0,-0.76089 -0.1395,-1.33156 -0.41849,-1.71201 -0.279,-0.38044 -0.73554,-0.57067 -1.36961,-0.57068 -0.48191,1e-5 -0.92893,0.12683 -1.34108,0.38045 -0.40581,0.25364 -0.70066,0.62458 -0.88454,1.11281 -0.18389,0.48825 -0.27583,1.19208 -0.27582,2.11149 l 0,5.24067 -1.71202,0"
         style="letter-spacing:-0.69591588px;fill:#ffffff;font-family:Arial;-inkscape-font-specification:Arial"
         id="path3279" />
      <path
         d="m 488.9587,195.30116 1.76909,0.21875 c -0.27901,1.03356 -0.79578,1.83567 -1.55033,2.40634 -0.75456,0.57067 -1.71836,0.856 -2.8914,0.856 -1.47741,0 -2.65046,-0.45336 -3.51914,-1.3601 -0.86235,-0.91307 -1.29353,-2.19074 -1.29352,-3.83301 -1e-5,-1.69932 0.43751,-3.01821 1.31254,-3.95665 0.87503,-0.93843 2.01003,-1.40765 3.40501,-1.40766 1.35058,1e-5 2.45388,0.45972 3.30989,1.37912 0.856,0.91943 1.284,2.21295 1.28401,3.88057 -1e-5,0.10146 -0.003,0.25364 -0.01,0.45654 l -7.53286,0 c 0.0634,1.10964 0.37727,1.95931 0.94161,2.549 0.56432,0.58969 1.26815,0.88454 2.11148,0.88454 0.62773,0 1.16353,-0.16486 1.60739,-0.49458 0.44385,-0.32972 0.79576,-0.85601 1.05574,-1.57886 m -5.62111,-2.76776 5.64014,0 c -0.0761,-0.84966 -0.29169,-1.48691 -0.64676,-1.91175 -0.54532,-0.65943 -1.25232,-0.98916 -2.121,-0.98916 -0.78626,0 -1.44888,0.26315 -1.98784,0.78942 -0.53263,0.5263 -0.82748,1.23013 -0.88454,2.11149"
         style="letter-spacing:-0.69591588px;fill:#ffffff;font-family:Arial;-inkscape-font-specification:Arial"
         id="path3281" />
      <path
         d="m 492.17189,198.55399 0,-10.10089 1.54081,0 0,1.5313 c 0.39313,-0.7165 0.75455,-1.18889 1.08428,-1.41717 0.33605,-0.22826 0.70382,-0.34239 1.1033,-0.3424 0.577,1e-5 1.16353,0.18389 1.75957,0.55165 l -0.5897,1.58837 c -0.4185,-0.24729 -0.83699,-0.37093 -1.25548,-0.37094 -0.37411,1e-5 -0.71017,0.11414 -1.00818,0.3424 -0.29802,0.22194 -0.51044,0.53264 -0.63725,0.9321 -0.19023,0.60872 -0.28534,1.27451 -0.28534,1.99735 l 0,5.28823 -1.71201,0"
         style="letter-spacing:-0.69591588px;fill:#ffffff;font-family:Arial;-inkscape-font-specification:Arial"
         id="path3284" />
      <path
         d="m 498.47622,190.40289 0,-1.94979 1.94979,0 0,1.94979 -1.94979,0 m 0,8.1511 0,-1.9498 1.94979,0 0,1.9498 -1.94979,0"
         style="letter-spacing:-0.69591588px;fill:#ffffff;font-family:Arial;-inkscape-font-specification:Arial"
         id="path3286" />
    </g>
    <path
       inkscape:connector-curvature="0"
       id="path3289"
       style="font-size:12.84875298000000043px;font-style:normal;font-weight:normal;line-height:125%;letter-spacing:-0.45904231000000001px;word-spacing:0px;fill:#ffffff;fill-opacity:1;stroke:none;font-family:Arial;-inkscape-font-specification:Arial"
       d="m 410.65311,235.79343 0,-8.11203 -3.03025,0 0,-1.08537 7.29016,0 0,1.08537 -3.04279,0 0,8.11203 -1.21712,0" />
    <path
       inkscape:connector-curvature="0"
       id="path3291"
       style="font-size:12.84875298000000043px;font-style:normal;font-weight:normal;line-height:125%;letter-spacing:-0.45904231000000001px;word-spacing:0px;fill:#ffffff;fill-opacity:1;stroke:none;font-family:Arial;-inkscape-font-specification:Arial"
       d="m 418.69507,233.64779 1.16693,0.14429 c -0.18404,0.68176 -0.52492,1.21085 -1.02263,1.58728 -0.49773,0.37642 -1.13347,0.56464 -1.90724,0.56464 -0.97453,0 -1.7483,-0.29905 -2.32131,-0.89716 -0.56882,-0.60228 -0.85323,-1.44506 -0.85323,-2.52834 0,-1.12092 0.28859,-1.99088 0.86578,-2.6099 0.57719,-0.61901 1.32586,-0.92852 2.24602,-0.92853 0.89088,10e-6 1.61864,0.30324 2.18329,0.90971 0.56463,0.60647 0.84695,1.45971 0.84696,2.55971 -10e-6,0.0669 -0.002,0.1673 -0.006,0.30114 l -4.96886,0 c 0.0418,0.73195 0.24886,1.29241 0.62111,1.68138 0.37224,0.38898 0.8365,0.58347 1.39278,0.58346 0.41407,1e-5 0.7675,-0.10874 1.06028,-0.32623 0.29277,-0.21749 0.5249,-0.56464 0.69639,-1.04145 m -3.70782,-1.82568 3.72037,0 c -0.0502,-0.56046 -0.1924,-0.9808 -0.42662,-1.26104 -0.3597,-0.43498 -0.82606,-0.65247 -1.39906,-0.65247 -0.51864,0 -0.95571,0.17358 -1.31122,0.52072 -0.35134,0.34716 -0.54583,0.81142 -0.58347,1.39279" />
    <path
       inkscape:connector-curvature="0"
       id="path3293"
       style="font-size:12.84875298000000043px;font-style:normal;font-weight:normal;line-height:125%;letter-spacing:-0.45904231000000001px;word-spacing:0px;fill:#ffffff;fill-opacity:1;stroke:none;font-family:Arial;-inkscape-font-specification:Arial"
       d="m 425.17486,234.97156 c -0.41826,0.35551 -0.82188,0.60647 -1.21085,0.75285 -0.38479,0.14639 -0.79887,0.21959 -1.24221,0.21959 -0.73195,0 -1.2945,-0.17776 -1.68765,-0.53328 -0.39316,-0.35969 -0.58974,-0.81768 -0.58974,-1.37396 0,-0.32623 0.0732,-0.62319 0.21958,-0.89088 0.15057,-0.27186 0.34506,-0.48935 0.58347,-0.65248 0.24258,-0.16311 0.51445,-0.2865 0.81559,-0.37015 0.22167,-0.0586 0.55627,-0.11502 1.00381,-0.16939 0.91179,-0.10874 1.58308,-0.2384 2.01389,-0.38898 0.004,-0.15475 0.006,-0.25304 0.006,-0.29487 0,-0.46007 -0.10666,-0.78422 -0.31996,-0.97244 -0.2886,-0.25513 -0.71731,-0.38269 -1.28613,-0.3827 -0.53119,1e-5 -0.92434,0.0941 -1.17948,0.28232 -0.25095,0.18404 -0.43707,0.51237 -0.55836,0.98499 l -1.10419,-0.15057 c 0.10038,-0.47262 0.26559,-0.85323 0.49563,-1.14183 0.23003,-0.29278 0.56255,-0.51654 0.99753,-0.6713 0.43498,-0.15893 0.93898,-0.2384 1.51199,-0.23841 0.56882,10e-6 1.03099,0.0669 1.38651,0.20077 0.35551,0.13384 0.61692,0.30324 0.78423,0.50817 0.16729,0.20077 0.2844,0.45591 0.35133,0.76541 0.0376,0.1924 0.0565,0.53955 0.0565,1.04145 l 0,1.50571 c 0,1.04982 0.023,1.71484 0.069,1.99507 0.0502,0.27605 0.14639,0.54164 0.2886,0.79678 l -1.17948,0 c -0.11711,-0.23423 -0.1924,-0.50818 -0.22585,-0.82187 m -0.0941,-2.52207 c -0.40989,0.1673 -1.02473,0.30951 -1.8445,0.42662 -0.46426,0.0669 -0.79259,0.14221 -0.98499,0.22585 -0.19239,0.0837 -0.34087,0.20704 -0.44544,0.37016 -0.10456,0.15894 -0.15684,0.33669 -0.15684,0.53327 0,0.30115 0.11293,0.5521 0.33878,0.75286 0.23004,0.20076 0.56464,0.30114 1.00381,0.30114 0.43498,0 0.82187,-0.0941 1.16066,-0.28232 0.33878,-0.1924 0.58764,-0.4538 0.74658,-0.78423 0.12129,-0.25513 0.18193,-0.63156 0.18194,-1.12928 l 0,-0.41407" />
    <path
       inkscape:connector-curvature="0"
       id="path3295"
       style="font-size:12.84875298000000043px;font-style:normal;font-weight:normal;line-height:125%;letter-spacing:-0.45904231000000001px;word-spacing:0px;fill:#ffffff;fill-opacity:1;stroke:none;font-family:Arial;-inkscape-font-specification:Arial"
       d="m 427.5202,235.79343 0,-6.66278 1.01009,0 0,0.93479 c 0.20912,-0.32623 0.48726,-0.58764 0.83441,-0.78422 0.34715,-0.20076 0.7424,-0.30114 1.18575,-0.30115 0.49354,10e-6 0.89715,0.10248 1.21085,0.30742 0.31786,0.20495 0.54163,0.49145 0.67129,0.85951 0.527,-0.77794 1.21293,-1.16692 2.05781,-1.16693 0.66083,10e-6 1.16901,0.18404 1.52454,0.5521 0.3555,0.36389 0.53326,0.92644 0.53327,1.68765 l 0,4.57361 -1.12301,0 0,-4.19718 c -1e-5,-0.45171 -0.0377,-0.77585 -0.11293,-0.97244 -0.0711,-0.20076 -0.20286,-0.36178 -0.39525,-0.48308 -0.1924,-0.12129 -0.41826,-0.18194 -0.67757,-0.18194 -0.46845,0 -0.85743,0.15685 -1.16693,0.47053 -0.30951,0.30952 -0.46427,0.80724 -0.46426,1.49317 l 0,3.87094 -1.12928,0 0,-4.32893 c -10e-6,-0.5019 -0.092,-0.87833 -0.27605,-1.12928 -0.18404,-0.25095 -0.48518,-0.37643 -0.90343,-0.37643 -0.31788,0 -0.61274,0.0837 -0.88461,0.25095 -0.26768,0.16731 -0.46217,0.41198 -0.58346,0.73404 -0.1213,0.32205 -0.18194,0.78632 -0.18194,1.39278 l 0,3.45687 -1.12929,0" />
    <path
       inkscape:connector-curvature="0"
       id="path3297"
       style="font-size:12.84875298000000043px;font-style:normal;font-weight:normal;line-height:125%;letter-spacing:-0.45904231000000001px;word-spacing:0px;fill:#ffffff;fill-opacity:1;stroke:none;font-family:Arial;-inkscape-font-specification:Arial"
       d="m 439.31285,235.79343 3.53215,-9.1974 1.31123,0 3.76428,9.1974 -1.38651,0 -1.07282,-2.78557 -3.84584,0 -1.01008,2.78557 -1.29241,0 m 2.65382,-3.77683 3.11808,0 -0.95989,-2.54717 c -0.29278,-0.77376 -0.51027,-1.40951 -0.65248,-1.90724 -0.11711,0.58975 -0.28232,1.1753 -0.49563,1.75667 l -1.01008,2.69774" />
    <path
       inkscape:connector-curvature="0"
       id="path3299"
       style="font-size:12.84875298000000043px;font-style:normal;font-weight:normal;line-height:125%;letter-spacing:-0.45904231000000001px;word-spacing:0px;fill:#ffffff;fill-opacity:1;stroke:none;font-family:Arial;-inkscape-font-specification:Arial"
       d="m 448.61585,230.41678 0,-1.28613 1.28613,0 0,1.28613 -1.28613,0 m 0,5.37665 0,-1.28613 1.28613,0 0,1.28613 -1.28613,0" />
    <path
       inkscape:connector-curvature="0"
       id="path3302"
       style="font-size:12.84875298000000043px;font-style:normal;font-weight:normal;line-height:125%;letter-spacing:-0.45904231000000001px;word-spacing:0px;fill:#ffffff;fill-opacity:1;stroke:none;font-family:Arial;-inkscape-font-specification:Arial"
       d="m 410.65311,281.85672 0,-8.11203 -3.03025,0 0,-1.08537 7.29016,0 0,1.08537 -3.04279,0 0,8.11203 -1.21712,0" />
    <path
       inkscape:connector-curvature="0"
       id="path3304"
       style="font-size:12.84875298000000043px;font-style:normal;font-weight:normal;line-height:125%;letter-spacing:-0.45904231000000001px;word-spacing:0px;fill:#ffffff;fill-opacity:1;stroke:none;font-family:Arial;-inkscape-font-specification:Arial"
       d="m 418.69507,279.71108 1.16693,0.1443 c -0.18404,0.68175 -0.52492,1.21084 -1.02263,1.58727 -0.49773,0.37643 -1.13347,0.56464 -1.90724,0.56464 -0.97453,0 -1.7483,-0.29905 -2.32131,-0.89715 -0.56882,-0.60229 -0.85323,-1.44507 -0.85323,-2.52835 0,-1.12091 0.28859,-1.99088 0.86578,-2.6099 0.57719,-0.61901 1.32586,-0.92852 2.24602,-0.92852 0.89088,0 1.61864,0.30324 2.18329,0.9097 0.56463,0.60647 0.84695,1.45971 0.84696,2.55971 -10e-6,0.0669 -0.002,0.16731 -0.006,0.30114 l -4.96886,0 c 0.0418,0.73195 0.24886,1.29241 0.62111,1.68138 0.37224,0.38898 0.8365,0.58347 1.39278,0.58347 0.41407,0 0.7675,-0.10875 1.06028,-0.32624 0.29277,-0.21749 0.5249,-0.56464 0.69639,-1.04145 m -3.70782,-1.82568 3.72037,0 c -0.0502,-0.56045 -0.1924,-0.9808 -0.42662,-1.26103 -0.3597,-0.43498 -0.82606,-0.65247 -1.39906,-0.65248 -0.51864,1e-5 -0.95571,0.17358 -1.31122,0.52073 -0.35134,0.34715 -0.54583,0.81141 -0.58347,1.39278" />
    <path
       inkscape:connector-curvature="0"
       id="path3306"
       style="font-size:12.84875298000000043px;font-style:normal;font-weight:normal;line-height:125%;letter-spacing:-0.45904231000000001px;word-spacing:0px;fill:#ffffff;fill-opacity:1;stroke:none;font-family:Arial;-inkscape-font-specification:Arial"
       d="m 425.17486,281.03485 c -0.41826,0.35552 -0.82188,0.60647 -1.21085,0.75286 -0.38479,0.14639 -0.79887,0.21958 -1.24221,0.21958 -0.73195,0 -1.2945,-0.17776 -1.68765,-0.53327 -0.39316,-0.3597 -0.58974,-0.81769 -0.58974,-1.37397 0,-0.32623 0.0732,-0.62319 0.21958,-0.89088 0.15057,-0.27186 0.34506,-0.48935 0.58347,-0.65247 0.24258,-0.16312 0.51445,-0.2865 0.81559,-0.37016 0.22167,-0.0585 0.55627,-0.11501 1.00381,-0.16939 0.91179,-0.10874 1.58308,-0.2384 2.01389,-0.38897 0.004,-0.15475 0.006,-0.25304 0.006,-0.29487 0,-0.46008 -0.10666,-0.78422 -0.31996,-0.97244 -0.2886,-0.25513 -0.71731,-0.3827 -1.28613,-0.38271 -0.53119,10e-6 -0.92434,0.0941 -1.17948,0.28233 -0.25095,0.18403 -0.43707,0.51236 -0.55836,0.98498 l -1.10419,-0.15057 c 0.10038,-0.47262 0.26559,-0.85323 0.49563,-1.14183 0.23003,-0.29277 0.56255,-0.51654 0.99753,-0.6713 0.43498,-0.15893 0.93898,-0.2384 1.51199,-0.2384 0.56882,0 1.03099,0.0669 1.38651,0.20076 0.35551,0.13385 0.61692,0.30324 0.78423,0.50818 0.16729,0.20077 0.2844,0.4559 0.35133,0.7654 0.0376,0.1924 0.0565,0.53955 0.0565,1.04145 l 0,1.50572 c 0,1.04982 0.023,1.71484 0.069,1.99507 0.0502,0.27604 0.14639,0.54164 0.2886,0.79677 l -1.17948,0 c -0.11711,-0.23422 -0.1924,-0.50818 -0.22585,-0.82187 m -0.0941,-2.52207 c -0.40989,0.16731 -1.02473,0.30951 -1.8445,0.42662 -0.46426,0.0669 -0.79259,0.14221 -0.98499,0.22586 -0.19239,0.0837 -0.34087,0.20704 -0.44544,0.37015 -0.10456,0.15894 -0.15684,0.3367 -0.15684,0.53328 0,0.30114 0.11293,0.55209 0.33878,0.75285 0.23004,0.20076 0.56464,0.30115 1.00381,0.30114 0.43498,10e-6 0.82187,-0.0941 1.16066,-0.28232 0.33878,-0.19239 0.58764,-0.4538 0.74658,-0.78422 0.12129,-0.25513 0.18193,-0.63156 0.18194,-1.12929 l 0,-0.41407" />
    <path
       inkscape:connector-curvature="0"
       id="path3308"
       style="font-size:12.84875298000000043px;font-style:normal;font-weight:normal;line-height:125%;letter-spacing:-0.45904231000000001px;word-spacing:0px;fill:#ffffff;fill-opacity:1;stroke:none;font-family:Arial;-inkscape-font-specification:Arial"
       d="m 427.5202,281.85672 0,-6.66278 1.01009,0 0,0.9348 c 0.20912,-0.32624 0.48726,-0.58764 0.83441,-0.78423 0.34715,-0.20075 0.7424,-0.30114 1.18575,-0.30114 0.49354,0 0.89715,0.10248 1.21085,0.30741 0.31786,0.20495 0.54163,0.49146 0.67129,0.85952 0.527,-0.77795 1.21293,-1.16693 2.05781,-1.16693 0.66083,0 1.16901,0.18404 1.52454,0.55209 0.3555,0.36389 0.53326,0.92644 0.53327,1.68766 l 0,4.5736 -1.12301,0 0,-4.19718 c -1e-5,-0.45171 -0.0377,-0.77585 -0.11293,-0.97244 -0.0711,-0.20075 -0.20286,-0.36178 -0.39525,-0.48308 -0.1924,-0.12129 -0.41826,-0.18193 -0.67757,-0.18194 -0.46845,10e-6 -0.85743,0.15685 -1.16693,0.47054 -0.30951,0.30951 -0.46427,0.80723 -0.46426,1.49316 l 0,3.87094 -1.12928,0 0,-4.32893 c -10e-6,-0.5019 -0.092,-0.87832 -0.27605,-1.12928 -0.18404,-0.25095 -0.48518,-0.37642 -0.90343,-0.37643 -0.31788,10e-6 -0.61274,0.0837 -0.88461,0.25095 -0.26768,0.16731 -0.46217,0.41199 -0.58346,0.73404 -0.1213,0.32206 -0.18194,0.78632 -0.18194,1.39278 l 0,3.45687 -1.12929,0" />
    <path
       inkscape:connector-curvature="0"
       id="path3310"
       style="font-size:12.84875298000000043px;font-style:normal;font-weight:normal;line-height:125%;letter-spacing:-0.45904231000000001px;word-spacing:0px;fill:#ffffff;fill-opacity:1;stroke:none;font-family:Arial;-inkscape-font-specification:Arial"
       d="m 440.97541,281.85672 0,-9.1974 3.45059,0 c 0.70266,1e-5 1.26521,0.0941 1.68765,0.28232 0.42662,0.18404 0.75913,0.47055 0.99754,0.85951 0.24258,0.38481 0.36387,0.78842 0.36388,1.21085 -1e-5,0.39316 -0.10666,0.76332 -0.31997,1.11046 -0.21331,0.34716 -0.53537,0.62739 -0.96616,0.84069 0.55627,0.16313 0.98289,0.44126 1.27986,0.83442 0.30113,0.39316 0.4517,0.85742 0.45171,1.39278 -10e-6,0.43081 -0.092,0.83233 -0.27605,1.20457 -0.17985,0.36807 -0.40362,0.65248 -0.6713,0.85324 -0.26768,0.20076 -0.60438,0.35343 -1.01008,0.45799 -0.40153,0.10038 -0.89507,0.15057 -1.48062,0.15057 l -3.50705,0 m 1.21712,-5.33273 1.98879,0 c 0.53954,0 0.92643,-0.0356 1.16066,-0.10666 0.3095,-0.092 0.54163,-0.24467 0.69639,-0.45799 0.15893,-0.2133 0.2384,-0.48098 0.2384,-0.80304 0,-0.30532 -0.0732,-0.573 -0.21958,-0.80305 -0.1464,-0.23422 -0.35552,-0.39315 -0.62738,-0.47681 -0.27187,-0.0878 -0.73822,-0.13174 -1.39906,-0.13175 l -1.83822,0 0,2.7793 m 0,4.24736 2.28993,0 c 0.39316,0 0.6692,-0.0146 0.82815,-0.0439 0.28022,-0.0502 0.51444,-0.13384 0.70266,-0.25096 0.18821,-0.11711 0.34296,-0.2865 0.46426,-0.50818 0.12129,-0.22585 0.18194,-0.48517 0.18194,-0.77795 0,-0.34296 -0.0878,-0.63992 -0.2635,-0.89088 -0.17567,-0.25513 -0.42035,-0.43289 -0.73403,-0.53327 -0.30951,-0.10456 -0.75704,-0.15684 -1.34259,-0.15685 l -2.12682,0 0,3.162" />
    <path
       inkscape:connector-curvature="0"
       id="path3312"
       style="font-size:12.84875298000000043px;font-style:normal;font-weight:normal;line-height:125%;letter-spacing:-0.45904231000000001px;word-spacing:0px;fill:#ffffff;fill-opacity:1;stroke:none;font-family:Arial;-inkscape-font-specification:Arial"
       d="m 449.31851,276.48007 0,-1.28613 1.28613,0 0,1.28613 -1.28613,0 m 0,5.37665 0,-1.28613 1.28613,0 0,1.28613 -1.28613,0" />
    <g
       style="font-size:30.74377251px;font-style:normal;font-weight:normal;line-height:125%;letter-spacing:0px;word-spacing:0px;fill:#ffffff;fill-opacity:1;stroke:none;font-family:Sans"
       id="text3245">
      <path
         d="m 209.65011,153.51527 0,-2.30578 c 0,-2.93089 -0.0512,-4.82676 -0.15372,-5.6876 -0.041,-0.34841 -0.16397,-0.57387 -0.36892,-0.67637 -0.18447,-0.12295 -0.50215,-0.18444 -0.95306,-0.18446 l -1.69091,0 c -0.16396,2e-5 -0.24595,-0.0717 -0.24595,-0.2152 l 0,-0.83009 c 0,-0.10245 0.0717,-0.15369 0.21521,-0.15372 0.0615,3e-5 0.27669,0.0103 0.64562,0.0307 0.38942,2e-5 0.92231,0.0103 1.59868,0.0307 0.69685,0.0205 1.4552,0.0308 2.27504,0.0308 0.26644,2e-5 1.03503,-0.0102 2.30578,-0.0308 1.29123,-0.041 2.04957,-0.0615 2.27504,-0.0615 2.21354,3e-5 4.11965,0.19474 5.71834,0.58414 1.59866,0.38944 3.02312,1.11704 4.27338,2.1828 2.27502,1.96762 3.41254,4.58084 3.41256,7.83967 -2e-5,1.72166 -0.24597,3.21785 -0.73785,4.48859 -0.49192,1.25025 -1.26051,2.44926 -2.30578,3.59702 -0.69688,0.75835 -1.47572,1.38347 -2.33653,1.87537 -0.86084,0.4714 -1.78315,0.79934 -2.76694,0.9838 -0.96332,0.18446 -1.73191,0.29719 -2.30578,0.33818 -0.5739,0.041 -1.29125,0.0615 -2.15206,0.0615 -0.69687,0 -1.71142,-0.0205 -3.04364,-0.0615 -1.33223,-0.0205 -2.20331,-0.0307 -2.61322,-0.0307 -0.77885,0 -1.4962,0.0102 -2.15206,0.0307 -0.65587,0.0205 -1.16827,0.0307 -1.53719,0.0307 -0.34843,0.0205 -0.56364,0.0307 -0.64562,0.0307 -0.14347,0 -0.21521,-0.0717 -0.21521,-0.21521 l 0,-0.79934 c 0,-0.12297 0.082,-0.18446 0.24595,-0.18446 l 2.05984,0 c 0.59437,0 0.92231,-0.24595 0.9838,-0.73785 0.14346,-1.00429 0.2152,-4.32462 0.2152,-9.96098 m 2.82843,-1.50645 0,2.18281 c -1e-5,2.48001 0.0205,4.99075 0.0615,7.53223 -1e-5,0.61487 0.1742,1.18876 0.52264,1.72165 0.49189,0.65587 1.57817,0.9838 3.25884,0.9838 1.51668,0 2.90015,-0.29719 4.15041,-0.89157 1.25023,-0.59438 2.27502,-1.40396 3.07438,-2.42876 1.49618,-1.84462 2.24427,-4.1504 2.24429,-6.91735 -2e-5,-1.18875 -0.23572,-2.40825 -0.7071,-3.65851 -0.47143,-1.27072 -1.07605,-2.31601 -1.81389,-3.13586 -1.80365,-1.96758 -4.37587,-2.95138 -7.71668,-2.9514 -1.29125,2e-5 -2.11108,0.1025 -2.4595,0.30743 -0.34844,0.22548 -0.54315,0.70713 -0.58414,1.44496 -0.0205,0.86084 -0.0307,2.7977 -0.0307,5.81057"
         style="font-variant:normal;font-stretch:normal;fill:#ffffff;font-family:Adobe Caslon Pro;-inkscape-font-specification:Adobe Caslon Pro"
         id="path3243" />
      <path
         d="m 241.36231,157.14303 -7.59371,0 c -0.0615,0.28695 -0.0922,0.77885 -0.0922,1.4757 0,1.49621 0.42016,2.7567 1.2605,3.78149 0.84032,1.0043 1.87536,1.50644 3.10512,1.50644 0.88131,0 1.6499,-0.20495 2.30578,-0.61487 0.65586,-0.40992 1.12726,-0.90182 1.41421,-1.4757 0.0615,-0.14347 0.15371,-0.19471 0.2767,-0.15372 l 0.39967,0.2152 c 0.12296,0.041 0.12296,0.19472 0,0.46116 -0.36894,0.81984 -0.97357,1.58843 -1.81389,2.30578 -0.84034,0.69686 -1.86513,1.04529 -3.07437,1.04529 -2.21356,0 -3.82248,-0.7276 -4.82678,-2.18281 -0.53289,-0.77884 -0.89157,-1.50644 -1.07603,-2.1828 -0.18446,-0.69686 -0.27669,-1.58843 -0.27669,-2.67471 0,-1.96759 0.64562,-3.59701 1.93686,-4.88826 1.06578,-1.08627 2.53123,-1.62941 4.39636,-1.62942 0.81982,1e-5 1.54742,0.17423 2.1828,0.52264 0.63536,0.34844 1.10677,0.7891 1.41422,1.32199 0.30742,0.5124 0.53288,1.0043 0.67636,1.4757 0.16395,0.45091 0.24594,0.85058 0.24595,1.199 -1e-5,0.32795 -0.28695,0.49191 -0.86083,0.4919 m -7.47073,-0.92231 4.76528,0 c 0.55338,1e-5 0.83007,-0.14346 0.83008,-0.43041 -1e-5,-0.32793 -0.0512,-0.67636 -0.15371,-1.04529 -0.10249,-0.36891 -0.34844,-0.73784 -0.73786,-1.10678 -0.36893,-0.38941 -0.86083,-0.58412 -1.4757,-0.58413 -0.71736,1e-5 -1.36298,0.25621 -1.93685,0.7686 -0.57389,0.5124 -1.0043,1.31174 -1.29124,2.39801"
         style="font-variant:normal;font-stretch:normal;fill:#ffffff;font-family:Adobe Caslon Pro;-inkscape-font-specification:Adobe Caslon Pro"
         id="path3245" />
      <path
         d="m 245.53674,160.09444 0,-11.34446 c 0,-1.00428 -0.10248,-1.68064 -0.30744,-2.02909 -0.18446,-0.3689 -0.56363,-0.6456 -1.13752,-0.83008 l -0.30743,-0.0922 c -0.26645,-0.082 -0.39967,-0.16395 -0.39967,-0.24595 l 0,-0.24595 c 0,-0.082 0.082,-0.16395 0.24595,-0.24595 1.37322,-0.61485 2.4595,-1.17849 3.25884,-1.69091 0.26644,-0.18444 0.48164,-0.27667 0.64562,-0.27669 0.18445,2e-5 0.26644,0.17424 0.24595,0.52264 -0.0205,0.16399 -0.0307,2.3263 -0.0307,6.48694 l 0,3.56628 c 0.4919,-0.4714 1.12727,-0.84032 1.90612,-1.10678 0.77883,-0.28693 1.55767,-0.4304 2.33652,-0.43041 1.47569,1e-5 2.77718,0.58414 3.90446,1.75239 1.14776,1.14778 1.72164,2.7567 1.72165,4.82678 -10e-6,1.82413 -0.63538,3.4433 -1.90611,4.85751 -1.27075,1.41422 -2.76695,2.12132 -4.48859,2.12132 -1.5372,0 -2.74645,-0.26644 -3.62777,-0.79934 l -1.22975,0.67637 c -0.12298,0.082 -0.2562,0.11272 -0.39967,0.0922 l -0.36892,-0.0922 c -0.10248,-0.0205 -0.14348,-0.10248 -0.12298,-0.24595 0.041,-0.28694 0.0615,-2.02909 0.0615,-5.22644 m 2.21355,-5.38016 0,3.99669 c 0,2.15206 0.15372,3.63801 0.46116,4.45784 0.16396,0.38943 0.53289,0.7481 1.10677,1.07604 0.57388,0.30743 1.17851,0.46115 1.81389,0.46115 1.08627,0 2.03932,-0.42016 2.85917,-1.26049 0.84032,-0.84033 1.26048,-2.18281 1.26049,-4.02744 -1e-5,-1.59867 -0.40993,-2.96164 -1.22975,-4.08892 -0.79935,-1.14776 -1.91637,-1.72164 -3.35107,-1.72165 -1.25025,1e-5 -2.2238,0.36894 -2.92066,1.10678"
         style="font-variant:normal;font-stretch:normal;fill:#ffffff;font-family:Adobe Caslon Pro;-inkscape-font-specification:Adobe Caslon Pro"
         id="path3247" />
      <path
         d="m 269.14508,159.84849 0,1.81388 c -1e-5,1.53719 0.30742,2.30578 0.92231,2.30578 0.49189,0 0.85057,-0.15372 1.07603,-0.46116 0.12297,-0.14346 0.22544,-0.18446 0.30744,-0.12297 l 0.30744,0.24595 c 0.12296,0.12298 0.11271,0.30744 -0.0308,0.55339 -0.5329,1.00429 -1.33224,1.50644 -2.39801,1.50644 -0.5534,0 -1.0248,-0.18446 -1.41421,-0.55339 -0.36894,-0.36892 -0.62513,-0.87107 -0.7686,-1.50644 l -0.0615,0 c -0.67638,0.79934 -1.69092,1.42446 -3.04364,1.87537 -0.38942,0.12297 -0.99405,0.18446 -1.81388,0.18446 -0.45091,0 -0.87108,-0.20496 -1.2605,-0.61487 -0.38942,-0.40992 -0.58413,-1.05554 -0.58413,-1.93686 0,-1.57818 1.02479,-2.81817 3.07438,-3.72 1.9471,-0.86082 3.10511,-1.4552 3.47405,-1.78314 l 0,-1.9676 c -0.10249,-0.9428 -0.24596,-1.51668 -0.43042,-1.72165 -0.38943,-0.4509 -1.0043,-0.67635 -1.84462,-0.67636 -0.86083,1e-5 -1.52695,0.21522 -1.99835,0.64562 -0.12298,0.12298 -0.20496,0.25621 -0.24595,0.39967 -0.0205,0.12298 -0.0102,0.2972 0.0308,0.52264 0.041,0.22547 0.0615,0.38943 0.0615,0.4919 0,1.16827 -0.54314,1.7524 -1.62942,1.7524 -0.4919,0 -0.73785,-0.32793 -0.73785,-0.9838 0,-0.4919 0.19471,-1.00429 0.58413,-1.53719 0.38942,-0.53288 0.90182,-0.98379 1.53719,-1.35273 1.20925,-0.71734 2.4595,-1.07602 3.75074,-1.07603 1.04528,1e-5 1.86512,0.27671 2.4595,0.83008 0.4509,0.45092 0.67636,1.17852 0.67637,2.18281 l 0,4.7038 m -2.2443,2.49024 0,-3.78148 c -0.14348,0.10248 -0.63538,0.35868 -1.4757,0.76859 -0.81984,0.38943 -1.46546,0.84034 -1.93686,1.35273 -0.47141,0.4919 -0.70711,1.11702 -0.7071,1.87537 -10e-6,0.55339 0.14346,0.97355 0.43041,1.26049 0.30743,0.28695 0.69685,0.43042 1.16826,0.43042 0.4714,0 1.00429,-0.21521 1.59868,-0.64562 0.61487,-0.45091 0.9223,-0.87108 0.92231,-1.2605"
         style="font-variant:normal;font-stretch:normal;fill:#ffffff;font-family:Adobe Caslon Pro;-inkscape-font-specification:Adobe Caslon Pro"
         id="path3249" />
      <path
         d="m 277.16104,158.40353 0,3.07438 c -1e-5,1.02479 0.16396,1.7319 0.4919,2.12132 0.34842,0.38942 0.71735,0.58413 1.10677,0.58413 0.9428,0 1.61917,-0.13322 2.02909,-0.39967 0.14346,-0.082 0.26644,-0.0615 0.36893,0.0615 l 0.15372,0.27669 c 0.082,0.10248 0.0615,0.21521 -0.0615,0.33818 -0.26646,0.26645 -0.70712,0.54314 -1.32198,0.83008 -0.59439,0.26645 -1.29125,0.39967 -2.09058,0.39967 -0.73786,0 -1.42447,-0.28694 -2.05983,-0.86082 -0.61488,-0.57389 -0.92232,-1.15802 -0.92232,-1.7524 0,-0.4919 0.0102,-1.32198 0.0308,-2.49024 0.041,-1.18876 0.0615,-1.82413 0.0615,-1.90612 l 0,-0.67636 c -1e-5,-0.88131 0.0205,-2.1828 0.0615,-3.90446 l -1.87537,0 c -0.30744,1e-5 -0.46115,-0.12296 -0.46115,-0.36893 0,-0.14345 0.18446,-0.32792 0.55338,-0.55338 0.40992,-0.24594 1.04529,-0.83007 1.90612,-1.7524 0.88132,-0.9223 1.41421,-1.6294 1.59867,-2.12132 0.082,-0.20494 0.22545,-0.30742 0.43042,-0.30744 0.20495,2e-5 0.30743,0.15374 0.30743,0.46116 l -0.15371,3.04363 4.27338,0 c 0.22544,2e-5 0.29718,0.0923 0.21521,0.2767 l -0.30744,1.07603 c -0.041,0.16398 -0.13323,0.24596 -0.27669,0.24595 l -3.96595,0 c -0.0615,1.41422 -0.0922,2.84893 -0.0922,4.30413"
         style="font-variant:normal;font-stretch:normal;fill:#ffffff;font-family:Adobe Caslon Pro;-inkscape-font-specification:Adobe Caslon Pro"
         id="path3251" />
      <path
         d="m 292.88215,157.14303 -7.59371,0 c -0.0615,0.28695 -0.0922,0.77885 -0.0922,1.4757 0,1.49621 0.42016,2.7567 1.26049,3.78149 0.84033,1.0043 1.87537,1.50644 3.10513,1.50644 0.88131,0 1.6499,-0.20495 2.30578,-0.61487 0.65585,-0.40992 1.12726,-0.90182 1.41421,-1.4757 0.0615,-0.14347 0.15371,-0.19471 0.2767,-0.15372 l 0.39966,0.2152 c 0.12297,0.041 0.12297,0.19472 0,0.46116 -0.36893,0.81984 -0.97356,1.58843 -1.81388,2.30578 -0.84034,0.69686 -1.86513,1.04529 -3.07438,1.04529 -2.21355,0 -3.82247,-0.7276 -4.82677,-2.18281 -0.53289,-0.77884 -0.89157,-1.50644 -1.07603,-2.1828 -0.18446,-0.69686 -0.27669,-1.58843 -0.27669,-2.67471 0,-1.96759 0.64561,-3.59701 1.93685,-4.88826 1.06578,-1.08627 2.53124,-1.62941 4.39636,-1.62942 0.81983,1e-5 1.54743,0.17423 2.18281,0.52264 0.63536,0.34844 1.10677,0.7891 1.41421,1.32199 0.30743,0.5124 0.53289,1.0043 0.67637,1.4757 0.16395,0.45091 0.24594,0.85058 0.24595,1.199 -10e-6,0.32795 -0.28696,0.49191 -0.86083,0.4919 m -7.47073,-0.92231 4.76528,0 c 0.55338,1e-5 0.83007,-0.14346 0.83008,-0.43041 -10e-6,-0.32793 -0.0512,-0.67636 -0.15372,-1.04529 -0.10248,-0.36891 -0.34843,-0.73784 -0.73785,-1.10678 -0.36893,-0.38941 -0.86083,-0.58412 -1.4757,-0.58413 -0.71736,1e-5 -1.36298,0.25621 -1.93686,0.7686 -0.57388,0.5124 -1.0043,1.31174 -1.29123,2.39801"
         style="font-variant:normal;font-stretch:normal;fill:#ffffff;font-family:Adobe Caslon Pro;-inkscape-font-specification:Adobe Caslon Pro"
         id="path3253" />
      <path
         d="m 310.3989,152.56221 0,-7.90115 -0.7686,0 c -2.43901,2e-5 -4.05818,0.123 -4.85751,0.36893 -0.90182,0.28696 -1.81389,1.47572 -2.7362,3.56627 -0.0615,0.123 -0.16397,0.17424 -0.30744,0.15372 l -0.55338,-0.15372 c -0.12298,-0.041 -0.16397,-0.12295 -0.12298,-0.24595 0.88132,-3.19733 1.36297,-5.00096 1.44496,-5.4109 0.041,-0.32791 0.14347,-0.49188 0.30744,-0.4919 0.14347,2e-5 0.26644,0.041 0.36892,0.12298 l 0.39967,0.27669 c 0.45091,0.32796 1.03504,0.50217 1.7524,0.52264 3.25883,0.123 5.19568,0.18449 5.81057,0.18447 l 1.4757,0 c 1.10676,2e-5 3.16659,-0.0615 6.1795,-0.18447 0.63535,-0.0205 1.16824,-0.16394 1.59867,-0.43041 l 0.58414,-0.36892 c 0.14345,-0.082 0.26642,-0.12296 0.36892,-0.12298 0.14345,2e-5 0.23568,0.16399 0.2767,0.4919 -3e-5,0.041 0.0615,0.45093 0.18446,1.22975 0.12295,0.75837 0.24593,1.56795 0.36892,2.42876 0.14345,0.86084 0.25618,1.48597 0.33818,1.87537 0.0205,0.14349 -0.041,0.22547 -0.18446,0.24595 l -0.4919,0.12298 c -0.1025,0.0205 -0.18448,-0.0512 -0.24595,-0.21521 -0.84035,-1.98808 -1.56795,-3.13585 -2.18281,-3.4433 -0.69687,-0.34841 -2.46976,-0.52263 -5.31867,-0.52265 l -0.86082,0 0,8.76198 c -2e-5,6.02578 0.0102,9.21288 0.0307,9.56131 0.0615,0.81984 0.4099,1.22975 1.04529,1.22975 l 1.93685,0 c 0.20495,0 0.30743,0.10248 0.30744,0.30744 l 0,0.64562 c -10e-6,0.16396 -0.10249,0.24595 -0.30744,0.24595 -0.041,0 -0.21522,-0.0102 -0.52264,-0.0307 -0.30745,0 -0.79935,-0.0102 -1.4757,-0.0307 -0.65588,-0.0205 -1.42447,-0.0307 -2.30578,-0.0307 -0.86084,0 -1.64993,0.0102 -2.36727,0.0307 -0.69687,0.0205 -1.24001,0.0307 -1.62942,0.0307 -0.36894,0.0205 -0.59439,0.0307 -0.67637,0.0307 -0.18447,0 -0.2767,-0.10248 -0.27669,-0.30744 l 0,-0.58413 c -10e-6,-0.20496 0.0717,-0.30744 0.21521,-0.30744 l 2.09057,0 c 0.28694,0 0.52264,-0.0717 0.70711,-0.21521 0.18445,-0.14346 0.28693,-0.31768 0.30744,-0.52264 0.0615,-0.59438 0.0922,-4.23239 0.0922,-10.91404"
         style="font-variant:normal;font-stretch:normal;fill:#ffffff;font-family:Adobe Caslon Pro;-inkscape-font-specification:Adobe Caslon Pro"
         id="path3255" />
      <path
         d="m 326.561,160.89377 0,-4.51933 c -10e-6,-0.57387 -0.11273,-0.99404 -0.33818,-1.2605 -0.20497,-0.26643 -0.66612,-0.46114 -1.38347,-0.58413 -0.18447,-0.0205 -0.2767,-0.0922 -0.2767,-0.2152 l 0,-0.2767 c 0,-0.082 0.0717,-0.1537 0.21521,-0.2152 1.22975,-0.4714 2.33652,-0.97354 3.32033,-1.50645 0.24594,-0.12296 0.44065,-0.18445 0.58413,-0.18446 0.14346,1e-5 0.1947,0.12299 0.15372,0.36892 -0.041,0.34845 -0.0615,2.01886 -0.0615,5.01124 l 0,3.35107 c -10e-6,1.53719 0.0102,2.41851 0.0307,2.64396 0.0615,0.5329 0.22545,0.79934 0.4919,0.79934 l 1.41422,0 c 0.20495,0 0.30743,0.0922 0.30743,0.2767 l 0,0.52264 c 0,0.20496 -0.0922,0.30744 -0.27669,0.30744 -0.041,0 -0.22546,-0.0102 -0.55339,-0.0307 -0.30744,0 -0.69686,-0.0102 -1.16826,-0.0307 -0.45091,-0.0205 -0.86083,-0.0307 -1.22975,-0.0307 -0.5124,0 -1.0248,0.0102 -1.53719,0.0307 -0.4919,0.0205 -0.90182,0.0307 -1.22975,0.0307 -0.30744,0.0205 -0.4919,0.0307 -0.55339,0.0307 -0.16397,0 -0.24595,-0.082 -0.24595,-0.24595 l 0,-0.61488 c 0,-0.16396 0.10248,-0.24595 0.30744,-0.24595 l 1.50644,0 c 0.30744,0 0.4714,-0.20495 0.4919,-0.61487 0.0205,-0.61488 0.0307,-1.54744 0.0307,-2.79769 m 0.30744,-12.29751 c -0.38943,2e-5 -0.7686,-0.1537 -1.13752,-0.46115 -0.36893,-0.30742 -0.55339,-0.68659 -0.55339,-1.13752 0,-0.4099 0.16396,-0.77882 0.4919,-1.10678 0.34842,-0.32791 0.80958,-0.49188 1.38347,-0.4919 0.49189,2e-5 0.88131,0.15374 1.16826,0.46116 0.28694,0.30746 0.43041,0.65589 0.43041,1.04529 0,0.45092 -0.15372,0.85059 -0.46115,1.199 -0.30744,0.32795 -0.7481,0.49192 -1.32198,0.4919"
         style="font-variant:normal;font-stretch:normal;fill:#ffffff;font-family:Adobe Caslon Pro;-inkscape-font-specification:Adobe Caslon Pro"
         id="path3257" />
      <path
         d="m 343.14966,163.78369 0,-6.33322 c -10e-6,-1.63966 -0.30745,-2.74643 -0.92231,-3.32033 -0.40993,-0.36891 -1.0658,-0.55337 -1.9676,-0.55338 -1.22976,1e-5 -2.21356,0.59439 -2.95141,1.78313 -0.28694,0.47142 -0.43041,1.15803 -0.43041,2.05984 l 0,6.08726 c 0,0.5329 0.20495,0.79934 0.61488,0.79934 l 1.10677,0 c 0.12297,0 0.20495,0.0205 0.24595,0.0615 0.041,0.0205 0.0615,0.0922 0.0615,0.21521 l 0,0.4919 c -10e-6,0.22545 -0.082,0.33818 -0.24595,0.33818 -0.041,0 -0.18447,-0.0102 -0.43041,-0.0307 -0.24596,0 -0.58414,-0.0102 -1.01455,-0.0307 -0.40992,-0.0205 -0.86083,-0.0307 -1.35272,-0.0307 -0.47141,0 -0.93257,0.0102 -1.38347,0.0307 -0.43042,0.0205 -0.77885,0.0307 -1.04529,0.0307 -0.24595,0.0205 -0.38942,0.0307 -0.43041,0.0307 -0.16397,0 -0.24596,-0.0922 -0.24595,-0.2767 l 0,-0.55338 c -10e-6,-0.12298 0.0205,-0.19471 0.0615,-0.21521 0.041,-0.041 0.14347,-0.0615 0.30744,-0.0615 l 1.04529,0 c 0.28694,0 0.44066,-0.25619 0.46116,-0.76859 0.0205,-0.34843 0.0307,-0.88132 0.0307,-1.59868 l 0,-5.47239 c 0,-0.73784 -0.28695,-1.26048 -0.86083,-1.56793 l -0.64562,-0.33818 c -0.14347,-0.082 -0.2152,-0.16396 -0.2152,-0.24595 l 0,-0.24595 c 0,-0.10247 0.0615,-0.18445 0.18446,-0.24595 l 2.70545,-1.38347 c 0.24595,-0.12297 0.44066,-0.18445 0.58413,-0.18447 0.18446,2e-5 0.27669,0.14349 0.2767,0.43042 l 0.12297,1.78314 0.0922,0 c 0.4714,-0.65586 1.12727,-1.20925 1.96761,-1.66017 0.84032,-0.45089 1.69089,-0.67635 2.55173,-0.67636 1.61916,1e-5 2.77717,0.7891 3.47405,2.36727 l 0.15371,0 c 0.49189,-0.65586 1.14776,-1.20924 1.96761,-1.66016 0.84031,-0.4714 1.69089,-0.7071 2.55173,-0.70711 1.22973,1e-5 2.15204,0.30745 2.76694,0.92231 0.34841,0.36894 0.59436,0.64563 0.73785,0.83008 0.14345,0.16398 0.29717,0.51241 0.46116,1.04529 0.18444,0.5329 0.27667,1.16827 0.27669,1.90612 l 0,6.85586 c -2e-5,0.40992 0.21518,0.61487 0.64562,0.61487 l 0.83008,0 c 0.22543,0 0.33816,0.0922 0.33818,0.2767 l 0,0.52264 c -2e-5,0.20496 -0.0718,0.30744 -0.2152,0.30744 -0.041,0 -0.17424,-0.0102 -0.39967,-0.0307 -0.22548,0 -0.53292,-0.0102 -0.92232,-0.0307 -0.38944,-0.0205 -0.79936,-0.0307 -1.22975,-0.0307 -0.45093,0 -0.90184,0.0102 -1.35272,0.0307 -0.43044,0.0205 -0.77887,0.0307 -1.04529,0.0307 -0.26647,0.0205 -0.42019,0.0307 -0.46116,0.0307 -0.16398,0 -0.24597,-0.10248 -0.24595,-0.30744 l 0,-0.52264 c -2e-5,-0.18447 0.13321,-0.2767 0.39967,-0.2767 l 0.76859,0 c 0.38941,0 0.59436,-0.19471 0.61488,-0.58413 0.041,-0.4714 0.0615,-1.30148 0.0615,-2.49024 l 0,-4.55008 c -2e-5,-1.16826 -0.29721,-1.98809 -0.89157,-2.4595 -0.55341,-0.43041 -1.31175,-0.64561 -2.27504,-0.64562 -0.47142,1e-5 -0.97357,0.16397 -1.50645,0.4919 -0.5329,0.30745 -0.92232,0.67637 -1.16826,1.10677 -0.28695,0.5534 -0.43043,1.58844 -0.43041,3.10512 l 0,5.31868 c -2e-5,0.4714 0.20494,0.7071 0.61487,0.7071 l 1.04529,0 c 0.22544,0 0.33817,0.0922 0.33818,0.2767 l 0,0.4919 c -10e-6,0.22545 -0.0718,0.33818 -0.2152,0.33818 -0.041,0 -0.17423,-0.0102 -0.39967,-0.0307 -0.20498,0 -0.52266,-0.0102 -0.95306,-0.0307 -0.40993,-0.0205 -0.87109,-0.0307 -1.38347,-0.0307 -0.49191,0 -0.96332,0.0102 -1.41421,0.0307 -0.45092,0.0205 -0.8096,0.0307 -1.07603,0.0307 -0.24596,0.0205 -0.37919,0.0307 -0.39967,0.0307 -0.14348,0 -0.21522,-0.10248 -0.21521,-0.30744 l 0,-0.4919 c -1e-5,-0.12297 0.0102,-0.20496 0.0307,-0.24595 0.041,-0.041 0.13322,-0.0615 0.2767,-0.0615 l 0.89157,0 c 0.45089,0 0.67635,-0.17421 0.67636,-0.52264"
         style="font-variant:normal;font-stretch:normal;fill:#ffffff;font-family:Adobe Caslon Pro;-inkscape-font-specification:Adobe Caslon Pro"
         id="path3259" />
      <path
         d="m 367.57991,157.14303 -7.59371,0 c -0.0615,0.28695 -0.0922,0.77885 -0.0922,1.4757 0,1.49621 0.42016,2.7567 1.2605,3.78149 0.84032,1.0043 1.87536,1.50644 3.10512,1.50644 0.88131,0 1.6499,-0.20495 2.30578,-0.61487 0.65586,-0.40992 1.12726,-0.90182 1.41421,-1.4757 0.0615,-0.14347 0.15371,-0.19471 0.2767,-0.15372 l 0.39967,0.2152 c 0.12296,0.041 0.12296,0.19472 0,0.46116 -0.36894,0.81984 -0.97357,1.58843 -1.81389,2.30578 -0.84034,0.69686 -1.86513,1.04529 -3.07437,1.04529 -2.21356,0 -3.82248,-0.7276 -4.82678,-2.18281 -0.53289,-0.77884 -0.89157,-1.50644 -1.07603,-2.1828 -0.18446,-0.69686 -0.27669,-1.58843 -0.27669,-2.67471 0,-1.96759 0.64562,-3.59701 1.93686,-4.88826 1.06578,-1.08627 2.53123,-1.62941 4.39636,-1.62942 0.81982,1e-5 1.54742,0.17423 2.1828,0.52264 0.63536,0.34844 1.10677,0.7891 1.41422,1.32199 0.30742,0.5124 0.53288,1.0043 0.67636,1.4757 0.16395,0.45091 0.24594,0.85058 0.24595,1.199 -1e-5,0.32795 -0.28695,0.49191 -0.86083,0.4919 m -7.47073,-0.92231 4.76528,0 c 0.55338,1e-5 0.83007,-0.14346 0.83008,-0.43041 -1e-5,-0.32793 -0.0512,-0.67636 -0.15372,-1.04529 -0.10248,-0.36891 -0.34843,-0.73784 -0.73785,-1.10678 -0.36893,-0.38941 -0.86083,-0.58412 -1.4757,-0.58413 -0.71736,1e-5 -1.36298,0.25621 -1.93685,0.7686 -0.57389,0.5124 -1.0043,1.31174 -1.29124,2.39801"
         style="font-variant:normal;font-stretch:normal;fill:#ffffff;font-family:Adobe Caslon Pro;-inkscape-font-specification:Adobe Caslon Pro"
         id="path3261" />
      <path
         d="m 372.52293,160.03295 0,-2.88992 c 0,-0.75833 -0.0717,-1.27073 -0.2152,-1.53719 -0.14348,-0.28693 -0.44067,-0.55337 -0.89157,-0.79933 l -0.58413,-0.30744 c -0.16397,-0.0615 -0.24596,-0.13321 -0.24595,-0.21521 l 0,-0.18446 c -10e-6,-0.10247 0.082,-0.1947 0.24595,-0.27669 l 3.04363,-1.56794 c 0.16396,-0.082 0.30743,-0.12296 0.43041,-0.12297 0.14347,1e-5 0.2152,0.12299 0.21521,0.36892 l 0.15372,2.12132 0.12297,0 c 0.4919,-0.75833 1.06578,-1.3937 1.72165,-1.90611 0.67636,-0.51238 1.33222,-0.76858 1.9676,-0.76859 0.4919,1e-5 0.87107,0.13323 1.13752,0.39967 0.28694,0.26645 0.43041,0.58414 0.43042,0.95305 -10e-6,0.40993 -0.14348,0.76861 -0.43042,1.07603 -0.26645,0.28696 -0.55339,0.43043 -0.86082,0.43042 -0.26646,1e-5 -0.56365,-0.082 -0.89157,-0.24595 -0.26646,-0.16396 -0.60464,-0.24594 -1.01455,-0.24595 -0.75835,1e-5 -1.36298,0.43042 -1.81388,1.29123 -0.20496,0.36894 -0.30744,0.69687 -0.30744,0.98381 l 0,6.45619 c 0,0.4714 0.0615,0.79934 0.18447,0.9838 0.12297,0.18446 0.34842,0.27669 0.67636,0.27669 l 1.44496,0 c 0.14346,0 0.2152,0.0922 0.2152,0.2767 l 0,0.55338 c 0,0.18447 -0.0512,0.2767 -0.15372,0.2767 -0.0205,0 -0.19471,-0.0102 -0.52264,-0.0307 -0.30744,0 -0.71736,-0.0102 -1.22975,-0.0307 -0.5124,-0.0205 -1.01455,-0.0307 -1.50645,-0.0307 -0.55339,0 -1.09653,0.0102 -1.62942,0.0307 -0.53289,0.0205 -0.95305,0.0307 -1.26049,0.0307 -0.30744,0.0205 -0.47141,0.0307 -0.4919,0.0307 -0.12298,0 -0.18446,-0.10248 -0.18446,-0.30744 l 0,-0.52264 c 0,-0.18447 0.11272,-0.2767 0.33818,-0.2767 l 1.19901,0 c 0.4509,0 0.67636,-0.19471 0.67636,-0.58413 0.0205,-0.67636 0.0307,-1.90611 0.0307,-3.68925"
         style="font-variant:normal;font-stretch:normal;fill:#ffffff;font-family:Adobe Caslon Pro;-inkscape-font-specification:Adobe Caslon Pro"
         id="path3263" />
    </g>
  </g>
</svg>
