<?xml version="1.0" encoding="iso-8859-1"?>
<!-- Generator: Adobe Illustrator 16.0.3, SVG Export Plug-In . SVG Version: 6.00 Build 0)  -->
<!DOCTYPE svg PUBLIC "-//W3C//DTD SVG 1.1//EN" "http://www.w3.org/Graphics/SVG/1.1/DTD/svg11.dtd">
<svg version="1.1" xmlns="http://www.w3.org/2000/svg" xmlns:xlink="http://www.w3.org/1999/xlink" x="0px" y="0px"
	 width="287.932px" height="141.379px" viewBox="0 0 287.932 141.379" style="enable-background:new 0 0 287.932 141.379;"
	 xml:space="preserve">
<g id="Layer_1">
	<g style="display:none;">
		<g style="display:inline;">
			<path style="fill:#988F86;" d="M16.979,110.824c0.39,0.104,0.811,0.186,1.388,0.194c1.122,0.012,1.518-0.477,1.518-1.023
				c0-0.65-0.675-0.869-1.752-1.213c-0.288-0.091-0.5-0.168-0.809-0.301c-0.936-0.395-1.661-1.115-1.661-2.366
				c0-2.096,1.854-2.725,3.332-2.734c1.274-0.009,2.244,0.237,2.971,0.486v2.17h-1.184l-0.056-0.652
				c-0.352-0.076-0.76-0.153-1.217-0.153c-0.041,0-0.082,0-0.124,0.002c-0.593,0.016-1.335,0.193-1.335,0.883
				c0,0.533,0.554,0.854,1.364,1.075c0.333,0.085,0.74,0.192,1.051,0.321c1.122,0.407,1.797,1.106,1.797,2.208
				c0,1.979-1.525,3.119-3.673,3.106c-0.931-0.013-2.041-0.156-2.857-0.424v-2.232h1.184L16.979,110.824z"/>
			<path style="fill:#988F86;" d="M28.475,103.557c1.414,0,3.084,0.956,3.084,3.042c0,1.553-1.221,2.96-3.084,2.96H26.58v1.541
				l0.817,0.09v1.468h-3.771v-1.468l0.748-0.078v-6.009l-0.748-0.078v-1.468H28.475z M27.924,108.035
				c0.735,0,1.364-0.468,1.364-1.452c0-1.059-0.622-1.504-1.373-1.504H26.58v2.956H27.924z"/>
			<path style="fill:#988F86;" d="M39.355,103.557v2.157h-1.18l-0.055-0.636h-2.253v2.173h3.118v1.521h-3.118v2.363h2.253
				l0.055-0.636h1.266v2.157h-6.596v-1.468l0.748-0.078v-6.009l-0.748-0.077v-1.469H39.355z"/>
			<path style="fill:#988F86;" d="M47.284,103.557v2.157h-1.18l-0.055-0.636h-2.253v2.173h3.118v1.521h-3.118v2.363h2.253
				l0.055-0.636h1.266v2.157h-6.596v-1.468l0.748-0.078v-6.009l-0.748-0.077v-1.469H47.284z"/>
			<path style="fill:#988F86;" d="M55.869,112.144c-0.737,0.435-1.712,0.695-2.897,0.695c-2.896,0-4.533-1.939-4.533-4.729
				c0-2.791,1.637-4.738,4.533-4.738c1.186,0,2.16,0.263,2.898,0.698v2.059h-1.184l-0.043-0.563
				c-0.348-0.348-0.901-0.588-1.646-0.588c-1.68,0-2.258,1.46-2.258,3.132s0.579,3.123,2.258,3.123c0.743,0,1.298-0.235,1.646-0.579
				l0.043-0.563h1.183L55.869,112.144z"/>
			<path style="fill:#988F86;" d="M66.64,103.557v1.469l-0.748,0.077v6.009l0.748,0.078v1.468h-3.022v-3.907h-3.199v3.907h-3.022
				v-1.468l0.748-0.078v-6.009l-0.748-0.077v-1.469h3.022v3.674h3.199v-3.674H66.64z"/>
			<path style="fill:#988F86;" d="M73.89,106.992c-0.382-0.4-0.669-0.815-0.669-1.519c0-1.04,0.88-2.099,2.819-2.099
				c2.021,0,2.909,1.099,2.909,2.105c0,0.88-0.689,1.628-2.054,2.141l-0.236,0.095l1.796,1.867c0.642-0.766,1.025-1.46,1.4-2.311
				h1.17v1.57l-0.758,0.087c-0.248,0.68-0.457,1.145-0.869,1.687l0.604,0.639l1.288,0.165v1.238h-2.17l-0.87-0.942
				c-0.697,0.714-1.756,1.124-2.924,1.124c-1.947,0-3.258-1.1-3.267-2.608c-0.009-1.248,1.013-2.142,2.288-2.457l0.197-0.077
				L73.89,106.992z M75.286,108.51l-0.222,0.094c-0.646,0.256-1.206,0.674-1.198,1.446c0.009,0.934,0.546,1.45,1.616,1.45
				c0.768,0,1.354-0.188,1.888-0.81L75.286,108.51z M76.161,106.8c0.87-0.396,1.168-0.75,1.168-1.209
				c0-0.376-0.155-0.959-1.037-0.959c-0.888,0-1.145,0.54-1.145,0.962c0,0.458,0.115,0.7,0.448,1.034l0.293,0.296L76.161,106.8z"/>
			<path style="fill:#988F86;" d="M90.527,103.557c2.896,0,4.533,1.757,4.533,4.547c0,2.791-1.637,4.554-4.533,4.554h-4.076v-1.468
				l0.748-0.078v-6.009l-0.748-0.077v-1.469H90.527z M90.536,111.136c1.488,0,2.232-1.285,2.232-3.032s-0.744-3.025-2.232-3.025
				h-1.062v6.058H90.536z"/>
			<path style="fill:#988F86;" d="M102.944,103.557v2.157h-1.18l-0.055-0.636h-2.253v2.173h3.118v1.521h-3.118v2.363h2.253
				l0.055-0.636h1.266v2.157h-6.596v-1.468l0.748-0.078v-6.009l-0.748-0.077v-1.469H102.944z"/>
			<path style="fill:#988F86;" d="M109.194,103.557c1.528,0,2.638,0.79,2.638,2.309c0,1.201-0.802,1.809-1.16,1.958
				c0.412,0.137,1.468,0.651,1.468,2.287c0,2.088-1.607,2.547-3.118,2.547h-4.658v-1.468l0.748-0.078v-6.009l-0.748-0.077v-1.469
				H109.194z M108.554,107.325c0.642,0,1.211-0.335,1.211-1.124c0-0.739-0.571-1.122-1.211-1.122h-1.401v2.246H108.554z
				 M108.572,111.136c0.659,0,1.311-0.354,1.311-1.147c0-0.751-0.602-1.143-1.25-1.143h-1.479v2.29H108.572z"/>
			<path style="fill:#988F86;" d="M118.765,103.557l2.51,7.57l0.677,0.063v1.468h-2.571l-0.578-1.987h-2.766l-0.579,1.987h-2.572
				v-1.468l0.676-0.063l2.053-6.023l-0.729-0.07l0.346-1.477H118.765z M117.382,105.442l-1.099,3.709h2.199L117.382,105.442z"/>
			<path style="fill:#988F86;" d="M129.703,103.557v2.157h-1.184l-0.055-0.636h-1.226v6.033l0.745,0.078v1.468h-3.771v-1.468
				l0.751-0.078v-6.033h-1.212l-0.055,0.636h-1.184v-2.157H129.703z"/>
			<path style="fill:#988F86;" d="M137.36,103.557v2.157h-1.18l-0.055-0.636h-2.253v2.173h3.118v1.521h-3.118v2.363h2.253
				l0.055-0.636h1.266v2.157h-6.596v-1.468l0.748-0.078v-6.009l-0.748-0.077v-1.469H137.36z"/>
			<path style="fill:#988F86;" d="M152.105,103.557v1.469l-0.748,0.077v6.009l0.748,0.078v1.468h-3.021v-3.907h-3.199v3.907h-3.022
				v-1.468l0.748-0.078v-6.009l-0.748-0.077v-1.469h3.022v3.674h3.199v-3.674H152.105z"/>
			<path style="fill:#988F86;" d="M162.549,108.104c0,2.791-1.637,4.735-4.533,4.735c-2.896,0-4.533-1.944-4.533-4.735
				c0-2.79,1.638-4.738,4.533-4.738C160.912,103.366,162.549,105.314,162.549,108.104z M155.758,108.104
				c0,1.672,0.578,3.123,2.258,3.123s2.268-1.45,2.268-3.123c0-1.672-0.588-3.132-2.268-3.132S155.758,106.432,155.758,108.104z"/>
			<path style="fill:#988F86;" d="M173.094,103.557v1.469l-0.748,0.077v7.555h-2.371l-3.117-5.356v5.356h-3.023v-1.468l0.748-0.078
				v-6.009l-0.748-0.077v-1.469h3.136l3.101,5.322v-5.322H173.094z"/>
			<path style="fill:#988F86;" d="M183.438,108.104c0,2.791-1.638,4.735-4.533,4.735s-4.534-1.944-4.534-4.735
				c0-2.79,1.639-4.738,4.534-4.738S183.438,105.314,183.438,108.104z M178.906,104.972c-1.68,0-2.259,1.46-2.259,3.132
				s0.579,3.123,2.259,3.123c1.678,0,2.266-1.45,2.266-3.123C181.172,106.432,180.584,104.972,178.906,104.972L178.906,104.972z"/>
			<path style="fill:#988F86;" d="M189.712,103.557c1.374,0,3,0.899,3,2.882c0,1.075-0.632,1.934-1.581,2.328l-0.187,0.044
				l1.344,2.249l1.072,0.13v1.468h-2.572l-1.922-3.419h-1.127v3.419h-2.928v-1.468l0.748-0.078v-6.009l-0.748-0.077v-1.469H189.712z
				 M189.141,107.717c0.698,0,1.297-0.416,1.297-1.295c0-0.914-0.595-1.344-1.306-1.344h-1.393v2.639H189.141z"/>
			<path style="fill:#988F86;" d="M199.674,110.824c0.39,0.104,0.811,0.186,1.388,0.194c1.122,0.012,1.518-0.477,1.518-1.023
				c0-0.65-0.675-0.869-1.751-1.213c-0.288-0.091-0.501-0.168-0.809-0.301c-0.937-0.395-1.661-1.115-1.661-2.366
				c0-2.096,1.854-2.725,3.332-2.734c1.273-0.009,2.243,0.237,2.971,0.486v2.17h-1.185l-0.055-0.652
				c-0.353-0.076-0.761-0.153-1.217-0.153c-0.041,0-0.083,0-0.124,0.002c-0.594,0.016-1.336,0.193-1.336,0.883
				c0,0.533,0.555,0.854,1.364,1.075c0.334,0.085,0.74,0.192,1.051,0.321c1.122,0.407,1.798,1.106,1.798,2.208
				c0,1.979-1.525,3.119-3.673,3.106c-0.931-0.013-2.041-0.156-2.857-0.424v-2.232h1.184L199.674,110.824z"/>
			<path style="fill:#988F86;" d="M215.035,108.104c0,2.791-1.638,4.735-4.533,4.735s-4.534-1.944-4.534-4.735
				c0-2.79,1.639-4.738,4.534-4.738S215.035,105.314,215.035,108.104z M208.244,108.104c0,1.672,0.579,3.123,2.258,3.123
				c1.68,0,2.267-1.45,2.267-3.123c0-1.672-0.587-3.132-2.267-3.132S208.244,106.432,208.244,108.104z"/>
			<path style="fill:#988F86;" d="M223.574,112.144c-0.737,0.435-1.712,0.695-2.897,0.695c-2.896,0-4.533-1.939-4.533-4.729
				c0-2.791,1.637-4.738,4.533-4.738c1.186,0,2.16,0.263,2.898,0.698v2.059h-1.184l-0.043-0.563
				c-0.349-0.348-0.901-0.588-1.646-0.588c-1.679,0-2.258,1.46-2.258,3.132s0.579,3.123,2.258,3.123
				c0.743,0,1.298-0.235,1.646-0.579l0.044-0.563h1.183V112.144z"/>
			<path style="fill:#988F86;" d="M228.873,103.557v1.469l-0.748,0.077v6.009l0.748,0.078v1.468h-3.771v-1.468l0.747-0.078v-6.009
				l-0.747-0.077v-1.469H228.873z"/>
			<path style="fill:#988F86;" d="M237.104,103.557v2.157h-1.181l-0.055-0.636h-2.252v2.173h3.117v1.521h-3.117v2.363h2.252
				l0.055-0.636h1.267v2.157h-6.596v-1.468l0.747-0.078v-6.009l-0.747-0.077v-1.469H237.104z"/>
			<path style="fill:#988F86;" d="M245.134,103.557v2.157h-1.185l-0.055-0.636h-1.226v6.033l0.745,0.078v1.468h-3.771v-1.468
				l0.751-0.078v-6.033h-1.212l-0.055,0.636h-1.185v-2.157H245.134z"/>
			<path style="fill:#988F86;" d="M254.894,103.557v1.469l-1.202,0.152l-2.255,3.919v2.016l0.743,0.077v1.468h-3.771v-1.468
				l0.752-0.079v-2.012l-2.256-3.922l-1.204-0.151v-1.469h2.574l2.022,3.689l2.023-3.689H254.894z"/>
		</g>
	</g>
</g>
<g id="Isolation_Mode">
	<g>
		<path style="fill:#FFFFFF;" d="M87.806,37.481v1.421L86.42,38.97v14.312h-2.179l-7.853-12.289v12.289h-3.482v-1.421l1.387-0.067
			V38.97l-1.387-0.067v-1.421h3.578l7.839,12.259V37.481H87.806z"/>
		<path style="fill:#FFFFFF;" d="M86.515,53.376H84.19l-0.027-0.043l-7.68-12.017v12.061h-3.671v-1.606l1.386-0.067V39.06
			l-1.386-0.067v-1.605h3.725l0.028,0.043l7.664,11.987v-12.03h3.672v1.605l-1.386,0.067V53.376L86.515,53.376z M84.293,53.188
			h2.032V38.879l1.386-0.067v-1.236h-3.294v12.488l-7.984-12.488h-3.432v1.236l1.386,0.067v13.004l-1.386,0.067v1.237h3.293V40.669
			L84.293,53.188L84.293,53.188z"/>
	</g>
	<g>
		<path style="fill:#FFFFFF;" d="M98.673,37.48l5.127,14.326l1.366,0.055v1.421h-3.09l-1.424-4.141h-6.424l-1.422,4.141H89.71
			v-1.421l1.37-0.054l4.679-12.836l-1.453-0.061l0.296-1.429L98.673,37.48z M97.41,39.322l-2.912,8.353h5.824L97.41,39.322z"/>
		<path style="fill:#FFFFFF;" d="M105.261,53.376h-3.253l-1.423-4.141h-6.288l-1.423,4.141h-3.259V51.77l1.398-0.055l4.612-12.655
			L94.191,39l0.335-1.613l4.214,0l5.128,14.329l1.394,0.055V53.376L105.261,53.376z M102.144,53.188h2.928v-1.236l-1.339-0.054
			l-5.126-14.323l-3.928,0L94.42,38.82l1.472,0.061l-0.044,0.122l-4.7,12.896l-1.343,0.053v1.236h2.934l1.423-4.141h6.559
			L102.144,53.188L102.144,53.188z M100.455,47.77h-6.09l3.045-8.735L100.455,47.77L100.455,47.77z M94.63,47.581h5.559
			l-2.779-7.972L94.63,47.581L94.63,47.581z"/>
	</g>
	<g>
		<path style="fill:#FFFFFF;" d="M116.27,37.481v2.764h-1.162l-0.047-1.296h-3.387v12.845l1.376,0.067v1.421h-4.869v-1.421
			l1.396-0.067V38.949h-3.374l-0.048,1.296h-1.161v-2.764H116.27z"/>
		<path style="fill:#FFFFFF;" d="M113.145,53.376h-5.059v-1.606l1.396-0.067v-12.66h-3.189l-0.047,1.296h-1.348v-2.953h11.465v2.953
			h-1.347l-0.048-1.296h-3.2v12.66l1.376,0.067V53.376L113.145,53.376z M108.276,53.188h4.68v-1.237l-1.376-0.067V38.854h3.573
			l0.046,1.296h0.977v-2.575h-11.087v2.575h0.976l0.047-1.296h3.562v13.029l-1.396,0.067V53.188L108.276,53.188z"/>
	</g>
	<g>
		<path style="fill:#FFFFFF;" d="M123.25,37.481v1.421l-1.387,0.067v12.824l1.387,0.067v1.421h-4.869v-1.421l1.387-0.067V38.97
			l-1.387-0.067v-1.421H123.25z"/>
		<path style="fill:#FFFFFF;" d="M123.344,53.376h-5.059v-1.606l1.387-0.067V39.06l-1.387-0.067v-1.605h5.059v1.605l-1.387,0.067
			v12.644l1.387,0.067V53.376L123.344,53.376z M118.475,53.188h4.68v-1.237l-1.387-0.067V38.879l1.387-0.067v-1.236h-4.68v1.236
			l1.386,0.067v13.004l-1.386,0.067V53.188L118.475,53.188z"/>
	</g>
	<g>
		<path style="fill:#FFFFFF;" d="M140.786,45.37c0,4.665-2.553,8.161-7.277,8.161c-4.724,0-7.28-3.496-7.28-8.161
			c0-4.664,2.557-8.172,7.28-8.172C138.233,37.198,140.786,40.707,140.786,45.37z M128.329,45.37c0,3.628,1.603,6.621,5.18,6.621
			c3.578,0,5.188-2.993,5.188-6.621c0-3.628-1.61-6.631-5.188-6.631C129.931,38.739,128.329,41.743,128.329,45.37z"/>
		<path style="fill:#FFFFFF;" d="M133.508,53.625c-4.48,0-7.375-3.241-7.375-8.255c0-5.022,2.895-8.267,7.375-8.267
			c4.479,0,7.372,3.245,7.372,8.267C140.88,50.384,137.987,53.625,133.508,53.625L133.508,53.625z M133.508,37.292
			c-4.365,0-7.187,3.17-7.187,8.078c0,4.9,2.821,8.066,7.187,8.066c4.364,0,7.184-3.166,7.184-8.066
			C140.692,40.463,137.873,37.292,133.508,37.292L133.508,37.292z M133.508,52.085c-3.253,0-5.274-2.573-5.274-6.715
			c0-4.148,2.021-6.725,5.274-6.725c3.259,0,5.283,2.577,5.283,6.725C138.792,49.512,136.767,52.085,133.508,52.085L133.508,52.085z
			 M133.508,38.833c-3.185,0-5.085,2.444-5.085,6.537c0,4.087,1.9,6.527,5.085,6.527c3.19,0,5.094-2.44,5.094-6.527
			C138.602,42.21,137.264,38.833,133.508,38.833L133.508,38.833z"/>
	</g>
	<g>
		<path style="fill:#FFFFFF;" d="M158.465,37.481v1.421l-1.386,0.067v14.312h-2.178l-7.854-12.289v12.289h-3.483v-1.421l1.387-0.067
			V38.97l-1.387-0.067v-1.421h3.581l7.837,12.259V37.481H158.465z"/>
		<path style="fill:#FFFFFF;" d="M157.174,53.376h-2.324l-0.028-0.043l-7.68-12.017v12.061h-3.67v-1.606l1.387-0.067V39.06
			l-1.387-0.067v-1.605h3.725l0.028,0.043l7.663,11.987v-12.03h3.672v1.605l-1.386,0.067V53.376L157.174,53.376z M154.953,53.188
			h2.032V38.879l1.385-0.067v-1.236h-3.293v12.488l-7.983-12.488h-3.434v1.236l1.387,0.067v13.004l-1.387,0.067v1.237h3.293V40.669
			L154.953,53.188L154.953,53.188z"/>
	</g>
	<g>
		<path style="fill:#FFFFFF;" d="M169.333,37.48l5.126,14.326l1.367,0.055v1.421h-3.09l-1.423-4.141h-6.425l-1.423,4.141h-3.096
			v-1.421l1.371-0.054l4.678-12.836l-1.453-0.061l0.296-1.429L169.333,37.48z M168.069,39.322l-2.912,8.353h5.824L168.069,39.322z"
			/>
		<path style="fill:#FFFFFF;" d="M175.921,53.376h-3.253l-1.423-4.141h-6.289l-1.422,4.141h-3.259V51.77l1.397-0.055l4.613-12.655
			L164.851,39l0.334-1.613l4.215,0l5.128,14.329l1.394,0.055V53.376L175.921,53.376z M172.803,53.188h2.929v-1.236l-1.339-0.054
			l-5.126-14.323l-3.928,0l-0.259,1.244l1.472,0.061l-0.045,0.122l-4.699,12.896l-1.343,0.053v1.236h2.934l1.424-4.141h6.558
			L172.803,53.188L172.803,53.188z M171.114,47.77h-6.09l3.045-8.735L171.114,47.77L171.114,47.77z M165.29,47.581h5.559
			l-2.779-7.972L165.29,47.581L165.29,47.581z"/>
	</g>
	<g>
		<path style="fill:#FFFFFF;" d="M181.416,37.481V51.58h5.425l0.047-1.275h1.232v2.978h-10.188v-1.421l1.387-0.067V38.97
			l-1.387-0.067v-1.421H181.416z"/>
		<path style="fill:#FFFFFF;" d="M188.214,53.376h-10.375v-1.606l1.386-0.067V39.06l-1.386-0.067v-1.605h3.671v14.099h5.239
			l0.047-1.276h1.418V53.376L188.214,53.376z M178.027,53.188h9.998v-2.789h-1.047l-0.047,1.276h-5.61V37.576h-3.294v1.236
			l1.386,0.067v13.004l-1.386,0.067V53.188L178.027,53.188z"/>
	</g>
	<g>
		<path style="fill:#FFFFFF;" d="M73.416,72.486c0.915,0.235,1.921,0.436,3.451,0.467c2.771,0.04,3.842-1.319,3.842-2.834
			c0-1.624-1.27-2.196-3.729-2.979c-0.548-0.169-0.822-0.267-1.435-0.496c-1.94-0.702-3.318-2.05-3.318-4.046
			c0-3.213,2.739-4.203,5.3-4.238c2.07-0.027,3.715,0.381,4.911,0.739v2.776h-1.161l-0.048-1.344
			c-0.837-0.196-1.893-0.419-3.12-0.419c-0.08,0-0.162,0.001-0.244,0.002c-1.776,0.04-3.445,0.593-3.445,2.484
			c0,1.311,1.162,2.244,2.962,2.787c0.54,0.154,1.236,0.358,1.642,0.513c2.512,0.844,3.872,1.882,3.872,3.984
			c0,2.831-2.092,4.828-5.839,4.804c-1.914-0.045-3.543-0.324-4.855-0.714v-2.83h1.162L73.416,72.486z"/>
		<path style="fill:#FFFFFF;" d="M77.12,74.78h-0.064c-1.774-0.042-3.416-0.283-4.882-0.718l-0.067-0.02v-2.995h1.347l0.054,1.365
			c0.853,0.216,1.854,0.416,3.361,0.446l0.119,0.001c1.23,0,2.174-0.28,2.805-0.834c0.538-0.472,0.823-1.132,0.823-1.906
			c0-1.553-1.173-2.097-3.664-2.89c-0.548-0.169-0.823-0.268-1.438-0.497c-2.179-0.788-3.38-2.256-3.38-4.135
			c0-3.844,3.771-4.311,5.394-4.333l0.197-0.001c1.996,0,3.583,0.398,4.742,0.744l0.067,0.021v2.94h-1.348l-0.048-1.363
			c-0.906-0.21-1.899-0.4-3.028-0.4l-0.242,0.003c-2.225,0.05-3.353,0.854-3.353,2.389c0,1.508,1.574,2.298,2.895,2.696
			c0.506,0.145,1.228,0.355,1.648,0.515c2.358,0.792,3.932,1.788,3.932,4.073C82.989,72.903,80.74,74.78,77.12,74.78L77.12,74.78z
			 M72.295,73.901c1.432,0.417,3.034,0.649,4.763,0.69l0.062,0.094v-0.094c3.504,0,5.681-1.805,5.681-4.71
			c0-1.883-1.067-2.975-3.807-3.895c-0.418-0.158-1.135-0.368-1.638-0.512c-1.983-0.597-3.031-1.592-3.031-2.877
			c0-1.635,1.224-2.527,3.538-2.578l0.246-0.003c1.178,0,2.206,0.203,3.142,0.422l0.07,0.017l0.047,1.325h0.977v-2.611
			c-1.141-0.338-2.688-0.717-4.621-0.717l-0.195,0.001c-1.565,0.021-5.206,0.468-5.206,4.144c0,1.793,1.156,3.198,3.256,3.958
			c0.611,0.228,0.885,0.326,1.43,0.494c2.362,0.753,3.796,1.335,3.796,3.07c0,0.831-0.307,1.539-0.887,2.048
			c-0.667,0.585-1.652,0.881-2.93,0.881l0,0l-0.122-0.001c-1.567-0.031-2.595-0.244-3.473-0.469l-0.068-0.018l-0.052-1.324h-0.977
			V73.901L72.295,73.901z"/>
	</g>
	<g>
		<path style="fill:#FFFFFF;" d="M92.427,58.636c2.388,0,4.774,1.67,4.774,4.827c0,2.792-2,4.743-4.774,4.743h-4.396v4.733
			l1.445,0.076v1.422h-4.868v-1.422l1.386-0.066V60.124l-1.386-0.067v-1.421H92.427z M91.956,66.736
			c1.734,0,3.152-1.084,3.152-3.287c0-2.176-1.419-3.347-3.16-3.347h-3.916v6.634H91.956z"/>
		<path style="fill:#FFFFFF;" d="M89.571,74.531h-5.057v-1.605l1.386-0.066V60.214l-1.386-0.067v-1.605h7.913
			c2.42,0,4.868,1.69,4.868,4.921c0,2.848-2.002,4.837-4.868,4.837h-4.302v4.549l1.445,0.078V74.531L89.571,74.531z M84.703,74.342
			h4.68v-1.237l-1.445-0.077v-4.916h4.49c2.755,0,4.68-1.912,4.68-4.649c0-3.106-2.354-4.733-4.68-4.733h-7.725v1.237l1.387,0.067
			v13.005l-1.387,0.067V74.342L84.703,74.342z M91.956,66.83h-4.019v-6.822h4.011c1.947,0,3.255,1.383,3.255,3.441
			C95.203,65.502,93.928,66.83,91.956,66.83L91.956,66.83z M88.125,66.641h3.83c1.479,0,3.058-0.837,3.058-3.191
			c0-1.976-1.203-3.252-3.065-3.252h-3.822V66.641L88.125,66.641z"/>
	</g>
	<g>
		<path style="fill:#FFFFFF;" d="M109.83,58.636V61.4h-1.158l-0.047-1.297h-6.177v5.441h6.486v1.467h-6.486v5.958h6.177l0.047-1.296
			h1.232v2.764H98.966v-1.422l1.386-0.066V60.125l-1.386-0.067v-1.421L109.83,58.636z"/>
		<path style="fill:#FFFFFF;" d="M109.998,74.531H98.872v-1.605l1.386-0.066V60.215l-1.386-0.068v-1.605l11.052,0v2.953h-1.343
			l-0.047-1.297h-5.99v5.251h6.484v1.657h-6.484v5.769h5.99l0.047-1.296h1.417V74.531L109.998,74.531z M99.06,74.342h10.749v-2.575
			h-1.047l-0.047,1.296h-6.361v-6.147h6.485v-1.278h-6.485v-5.63h6.361l0.047,1.297h0.973V58.73l-10.675,0v1.237l1.386,0.067v13.004
			l-1.386,0.067V74.342L99.06,74.342z"/>
	</g>
	<g>
		<path style="fill:#FFFFFF;" d="M122.516,58.636V61.4h-1.157l-0.047-1.297h-6.176v5.441h6.485v1.467h-6.485v5.958h6.176
			l0.047-1.296h1.232v2.764h-10.938v-1.422l1.386-0.066V60.125l-1.386-0.067v-1.421L122.516,58.636z"/>
		<path style="fill:#FFFFFF;" d="M122.686,74.531h-11.127v-1.605l1.386-0.066V60.215l-1.386-0.068v-1.605l11.052,0v2.953h-1.343
			l-0.047-1.297h-5.99v5.251h6.485v1.657h-6.485v5.769h5.99l0.047-1.296h1.418V74.531L122.686,74.531z M111.749,74.342h10.748
			v-2.575h-1.046l-0.048,1.296h-6.361v-6.147h6.485v-1.278h-6.485v-5.63h6.361l0.048,1.297h0.972V58.73l-10.674,0v1.237l1.385,0.067
			v13.004l-1.385,0.067V74.342L111.749,74.342z"/>
	</g>
	<g>
		<path style="fill:#FFFFFF;" d="M135.697,73.835c-1.175,0.515-2.73,0.873-4.646,0.873c-4.724,0-7.277-3.5-7.277-8.164
			c0-4.665,2.554-8.173,7.277-8.173c1.915,0,3.472,0.361,4.646,0.877v2.678h-1.161l-0.037-1.265
			c-0.82-0.427-1.962-0.749-3.427-0.749c-3.576,0-5.18,3.003-5.18,6.631s1.604,6.623,5.181,6.623c1.463,0,2.605-0.316,3.426-0.741
			l0.037-1.265h1.161L135.697,73.835z"/>
		<path style="fill:#FFFFFF;" d="M131.051,74.802c-4.479,0-7.372-3.242-7.372-8.258c0-5.022,2.894-8.268,7.372-8.268
			c1.747,0,3.366,0.307,4.686,0.886l0.056,0.024v2.834h-1.348l-0.038-1.302c-0.653-0.331-1.75-0.712-3.334-0.712
			c-3.184,0-5.086,2.444-5.086,6.537c0,4.088,1.902,6.529,5.087,6.529c1.586,0,2.682-0.378,3.334-0.707l0.037-1.3h1.348
			l-0.001,2.831l-0.057,0.023C134.418,74.498,132.799,74.802,131.051,74.802L131.051,74.802z M131.051,58.466
			c-4.364,0-7.183,3.171-7.183,8.079c0,4.902,2.818,8.07,7.183,8.07c1.697,0,3.269-0.291,4.552-0.841l0.001-2.519h-0.975
			l-0.037,1.229l-0.049,0.026c-0.664,0.342-1.805,0.751-3.47,0.751c-3.254,0-5.275-2.574-5.275-6.718
			c0-4.149,2.021-6.727,5.274-6.727c1.662,0,2.804,0.414,3.471,0.759l0.049,0.026l0.036,1.229h0.976v-2.522
			C134.32,58.758,132.747,58.466,131.051,58.466L131.051,58.466z"/>
	</g>
	<g>
		<path style="fill:#FFFFFF;" d="M152.336,58.636v1.421l-1.386,0.067v12.824l1.386,0.066v1.422h-3.482v-7.425h-7.69v7.425h-3.482
			v-1.422l1.387-0.066V60.125l-1.387-0.067v-1.421h3.482v6.91h7.69v-6.91H152.336z"/>
		<path style="fill:#FFFFFF;" d="M152.431,74.531h-3.672v-7.424h-7.5v7.424h-3.672v-1.605l1.387-0.066V60.215l-1.387-0.068v-1.605
			h3.672v6.91h7.5v-6.91h3.672v1.605l-1.386,0.068v12.644l1.386,0.066V74.531L152.431,74.531z M148.948,74.342h3.293v-1.236
			l-1.386-0.067V60.035l1.386-0.067V58.73h-3.293v6.91h-7.879v-6.91h-3.293v1.237l1.386,0.067v13.004l-1.386,0.067v1.236h3.293
			v-7.424h7.879V74.342L148.948,74.342z"/>
	</g>
	<g>
		<path style="fill:#FFFFFF;" d="M159.492,64.867c-0.854-0.883-1.301-1.671-1.301-3.024c0-1.59,1.201-3.461,4.315-3.461
			c3.194,0,4.227,1.985,4.227,3.461c0,1.528-1.103,2.793-3.634,3.865l-0.571,0.252l4.433,4.567c1.122-1.349,1.823-2.891,2.362-4.777
			h1.757v1.511l-1.283,0.075c-0.437,1.702-0.998,3.042-1.923,4.193l1.488,1.542l1.945,0.145v1.221h-2.763l-1.751-1.843
			c-1.259,1.347-3.083,2.091-5.274,2.091c-3.485,0-5.271-1.77-5.301-4.303c-0.029-2.305,1.8-3.597,3.7-4.243l0.547-0.24
			L159.492,64.867z M161.211,66.717l-0.615,0.277c-1.357,0.593-2.71,1.426-2.682,3.229c0.03,1.986,1.076,3.16,3.739,3.16
			c1.819,0,3.184-0.533,4.282-1.782L161.211,66.717z M162.411,64.864c2.074-0.958,2.787-1.813,2.787-2.923
			c0-0.909-0.371-2.319-2.476-2.319c-2.12,0-2.733,1.305-2.733,2.327c0,1.107,0.275,1.693,1.068,2.501l0.701,0.714L162.411,64.864z"
			/>
	</g>
	<g>
		<path style="fill:#FFFFFF;" d="M181.904,58.636c4.724,0,7.276,3.226,7.276,7.89c0,4.665-2.553,7.912-7.276,7.912h-6.479v-1.422
			l1.388-0.066V60.125l-1.388-0.067v-1.421L181.904,58.636z M181.911,72.969c3.416,0,5.159-2.753,5.159-6.444
			c0-3.69-1.743-6.422-5.159-6.422h-3.003v12.866H181.911z"/>
		<path style="fill:#FFFFFF;" d="M181.904,74.531h-6.573v-1.605l1.388-0.066V60.215l-1.388-0.068v-1.605l6.573,0
			c4.547,0,7.371,3.059,7.371,7.984C189.275,71.463,186.451,74.531,181.904,74.531L181.904,74.531z M175.521,74.342h6.384
			c4.43,0,7.182-2.996,7.182-7.817c0-4.809-2.752-7.795-7.182-7.795l-6.384,0v1.237l1.388,0.067v13.004l-1.388,0.067V74.342
			L175.521,74.342z M181.911,73.064h-3.097V60.009h3.097c3.241,0,5.254,2.497,5.254,6.517
			C187.165,70.558,185.152,73.064,181.911,73.064L181.911,73.064z M179.003,72.875h2.908c3.124,0,5.065-2.433,5.065-6.349
			c0-3.903-1.941-6.328-5.065-6.328h-2.908V72.875L179.003,72.875z"/>
	</g>
	<g>
		<path style="fill:#FFFFFF;" d="M202.003,58.636V61.4h-1.158l-0.048-1.297h-6.176v5.441h6.486v1.467h-6.486v5.958h6.176
			l0.048-1.296h1.232v2.764h-10.938v-1.422l1.386-0.066V60.125l-1.386-0.067v-1.421L202.003,58.636z"/>
		<path style="fill:#FFFFFF;" d="M202.171,74.531h-11.127v-1.605l1.386-0.066V60.215l-1.386-0.068v-1.605l11.053,0v2.953h-1.343
			l-0.048-1.297h-5.99v5.251h6.485v1.657h-6.485v5.769h5.99l0.048-1.296h1.417V74.531L202.171,74.531z M191.233,74.342h10.748
			v-2.575h-1.046l-0.047,1.296h-6.361v-6.147h6.485v-1.278h-6.485v-5.63h6.361l0.047,1.297h0.973V58.73l-10.675,0v1.237l1.386,0.067
			v13.004l-1.386,0.067V74.342L191.233,74.342z"/>
	</g>
	<g>
		<path style="fill:#FFFFFF;" d="M211.777,58.636c2.382,0,4.203,1.453,4.203,3.998c0,2.073-1.22,3.232-2.272,3.588
			c1.23,0.312,2.786,1.48,2.786,3.969c0,3.162-2.28,4.246-4.688,4.246h-7.98v-1.422l1.387-0.066V60.125l-1.387-0.067v-1.421H211.777
			z M211.229,65.736c1.549,0,2.833-0.905,2.833-2.811c0-1.78-1.291-2.821-2.833-2.821h-4.122v5.632H211.229z M211.419,72.97
			c1.606,0,2.994-0.941,2.994-2.885c0-1.821-1.351-2.881-2.941-2.881h-4.365v5.766H211.419z"/>
		<path style="fill:#FFFFFF;" d="M211.806,74.531h-8.075v-1.605l1.388-0.066V60.215l-1.388-0.068v-1.605h8.047
			c2.57,0,4.297,1.645,4.297,4.092c0,1.963-1.066,3.12-2.077,3.575c1.25,0.429,2.591,1.683,2.591,3.981
			C216.588,74.109,213.243,74.531,211.806,74.531L211.806,74.531z M203.919,74.342h7.887c1.381,0,4.594-0.404,4.594-4.151
			c0-2.351-1.402-3.545-2.715-3.877l-0.311-0.079l0.305-0.102c1.018-0.344,2.207-1.467,2.207-3.498c0-2.371-1.613-3.904-4.108-3.904
			h-7.858v1.237l1.388,0.067v13.004l-1.388,0.067V74.342L203.919,74.342z M211.419,73.065h-4.406v-5.956h4.459
			c1.787,0,3.036,1.223,3.036,2.976C214.508,71.895,213.295,73.065,211.419,73.065L211.419,73.065z M207.201,72.876h4.218
			c1.338,0,2.899-0.731,2.899-2.792c0-1.641-1.171-2.787-2.847-2.787h-4.271V72.876L207.201,72.876z M211.229,65.831h-4.216V60.01
			h4.216c1.724,0,2.928,1.198,2.928,2.916C214.156,65.067,212.644,65.831,211.229,65.831L211.229,65.831z M207.201,65.642h4.027
			c1.324,0,2.738-0.713,2.738-2.717c0-1.605-1.126-2.727-2.738-2.727h-4.027V65.642L207.201,65.642z"/>
	</g>
	<g>
		<path style="fill:#FFFFFF;" d="M225.68,58.636l5.127,14.326l1.366,0.054v1.422h-3.092l-1.423-4.141h-6.423l-1.423,4.141h-3.098
			v-1.422l1.371-0.053l4.679-12.837l-1.455-0.06l0.299-1.429L225.68,58.636z M224.415,60.477l-2.911,8.354h5.824L224.415,60.477z"/>
		<path style="fill:#FFFFFF;" d="M232.267,74.531h-3.252l-1.423-4.14h-6.289l-1.424,4.14h-3.258v-1.605l1.398-0.056l4.612-12.655
			l-1.438-0.06l0.337-1.613l4.215,0l5.126,14.328l1.395,0.056V74.531L232.267,74.531z M229.148,74.342h2.93v-1.235l-1.34-0.055
			l-0.022-0.06l-5.103-14.263l-3.929,0l-0.26,1.244l1.473,0.062l-0.044,0.122l-4.699,12.896l-1.345,0.053v1.235h2.935l1.424-4.14
			h6.559L229.148,74.342L229.148,74.342z M227.461,68.925h-6.091l3.045-8.735L227.461,68.925L227.461,68.925z M221.637,68.735h5.559
			l-2.78-7.971L221.637,68.735L221.637,68.735z"/>
	</g>
	<g>
		<path style="fill:#FFFFFF;" d="M242.371,58.636V61.4h-1.161l-0.048-1.296h-3.387v12.845l1.377,0.066v1.422h-4.868v-1.422
			l1.396-0.066V60.104h-3.375l-0.048,1.296h-1.161v-2.764H242.371z"/>
		<path style="fill:#FFFFFF;" d="M239.247,74.531h-5.058v-1.605l1.396-0.066V60.198h-3.19l-0.047,1.296h-1.347v-2.953h11.463v2.953
			h-1.346l-0.047-1.296h-3.202v12.661l1.377,0.066V74.531L239.247,74.531z M234.379,74.342h4.679v-1.236l-1.377-0.067V60.01h3.573
			l0.047,1.296h0.976V58.73h-11.085v2.575h0.976l0.047-1.296h3.561v13.029l-1.396,0.067V74.342L234.379,74.342z"/>
	</g>
	<g>
		<path style="fill:#FFFFFF;" d="M254.443,58.636V61.4h-1.157l-0.047-1.297h-6.178v5.441h6.486v1.467h-6.486v5.958h6.178
			l0.047-1.296h1.23v2.764h-10.938v-1.422l1.388-0.066V60.125l-1.388-0.067v-1.421L254.443,58.636z"/>
		<path style="fill:#FFFFFF;" d="M254.611,74.531h-11.126v-1.605l1.387-0.066V60.215l-1.387-0.068v-1.605l11.053,0v2.953h-1.344
			l-0.047-1.297h-5.991v5.251h6.485v1.657h-6.485v5.769h5.991l0.047-1.296h1.417V74.531L254.611,74.531z M243.674,74.342h10.749
			v-2.575h-1.047l-0.047,1.296h-6.361v-6.147h6.485v-1.278h-6.485v-5.63h6.361l0.047,1.297h0.973V58.73l-10.675,0v1.237l1.387,0.067
			v13.004l-1.387,0.067V74.342L243.674,74.342z"/>
	</g>
	<g>
		<path style="fill:#FFFFFF;" d="M80.546,79.791l5.127,14.325l1.366,0.055v1.422h-3.091l-1.423-4.141h-6.424l-1.422,4.141h-3.097
			V94.17l1.37-0.055l4.678-12.837l-1.453-0.059l0.297-1.43H80.546z M79.283,81.632l-2.913,8.353h5.825L79.283,81.632z"/>
		<path style="fill:#FFFFFF;" d="M87.134,95.686h-3.253l-1.423-4.141h-6.289l-1.422,4.141h-3.259v-1.605l1.397-0.056l4.612-12.656
			l-1.436-0.059l0.335-1.614h4.215l5.128,14.329l1.394,0.056V95.686L87.134,95.686z M84.016,95.498h2.929v-1.235l-1.339-0.055
			L80.48,79.885h-3.929l-0.258,1.245l1.471,0.061l-0.043,0.121L73.02,94.208l-1.342,0.055v1.235h2.935l1.422-4.141h6.559
			L84.016,95.498L84.016,95.498z M82.328,90.08h-6.091l3.046-8.734L82.328,90.08L82.328,90.08z M76.502,89.891h5.56l-2.779-7.972
			L76.502,89.891L76.502,89.891z"/>
	</g>
	<g>
		<path style="fill:#FFFFFF;" d="M89.127,93.641c0.915,0.234,1.921,0.436,3.451,0.467c2.771,0.04,3.842-1.318,3.842-2.834
			c0-1.625-1.27-2.196-3.729-2.98c-0.547-0.168-0.822-0.267-1.434-0.495c-1.941-0.702-3.319-2.05-3.319-4.047
			c0-3.212,2.739-4.202,5.3-4.238c2.07-0.027,3.715,0.383,4.912,0.74v2.775h-1.162l-0.048-1.344c-0.837-0.196-1.892-0.42-3.12-0.42
			c-0.08,0-0.162,0.001-0.244,0.003c-1.776,0.04-3.444,0.594-3.444,2.483c0,1.312,1.161,2.245,2.962,2.788
			c0.539,0.153,1.235,0.357,1.642,0.512c2.511,0.844,3.87,1.882,3.87,3.984c0,2.83-2.091,4.827-5.838,4.805
			c-1.914-0.045-3.542-0.325-4.855-0.714v-2.83h1.162L89.127,93.641z"/>
		<path style="fill:#FFFFFF;" d="M92.83,95.935h-0.063c-1.771-0.042-3.412-0.283-4.881-0.718l-0.067-0.02v-2.996h1.347l0.054,1.365
			c0.854,0.215,1.856,0.416,3.361,0.445l0.118,0.002c1.23,0,2.174-0.281,2.805-0.834c0.539-0.473,0.823-1.132,0.823-1.906
			c0-1.553-1.174-2.097-3.664-2.891c-0.548-0.169-0.823-0.268-1.438-0.496c-2.179-0.788-3.38-2.258-3.38-4.136
			c0-3.842,3.772-4.311,5.394-4.332l0.192-0.002c1.999,0,3.587,0.398,4.747,0.744l0.067,0.021v2.939h-1.347l-0.049-1.361
			c-0.906-0.211-1.899-0.401-3.028-0.401l-0.241,0.003c-2.226,0.051-3.354,0.854-3.354,2.389c0,1.509,1.574,2.299,2.895,2.696
			c0.505,0.145,1.228,0.355,1.648,0.516c2.359,0.792,3.932,1.788,3.932,4.072C98.701,94.058,96.452,95.935,92.83,95.935
			L92.83,95.935z M88.007,95.055c1.435,0.418,3.037,0.65,4.763,0.691l0.06,0.094v-0.094c3.505,0,5.683-1.805,5.683-4.711
			c0-1.883-1.067-2.975-3.807-3.895c-0.418-0.158-1.135-0.367-1.638-0.512c-1.983-0.598-3.03-1.592-3.03-2.878
			c0-1.635,1.223-2.525,3.537-2.578l0.246-0.002c1.178,0,2.206,0.203,3.142,0.422l0.071,0.018l0.046,1.322h0.977v-2.609
			c-1.142-0.338-2.689-0.718-4.626-0.718l-0.189,0.002c-1.566,0.022-5.207,0.47-5.207,4.144c0,1.792,1.156,3.199,3.256,3.958
			c0.611,0.229,0.886,0.326,1.431,0.494c2.361,0.753,3.795,1.336,3.795,3.07c0,0.83-0.307,1.539-0.887,2.048
			c-0.667,0.585-1.652,0.881-2.93,0.881l0,0l-0.122-0.001c-1.564-0.031-2.594-0.244-3.473-0.47l-0.068-0.018l-0.052-1.323h-0.977
			V95.055L88.007,95.055z"/>
	</g>
	<g>
		<path style="fill:#FFFFFF;" d="M101.205,93.641c0.916,0.234,1.922,0.436,3.451,0.467c2.772,0.04,3.843-1.318,3.843-2.834
			c0-1.625-1.271-2.196-3.729-2.98c-0.548-0.168-0.822-0.267-1.435-0.495c-1.941-0.702-3.319-2.05-3.319-4.047
			c0-3.212,2.739-4.202,5.301-4.238c2.069-0.027,3.715,0.383,4.911,0.74v2.775h-1.161l-0.049-1.344
			c-0.837-0.196-1.892-0.42-3.119-0.42c-0.081,0-0.163,0.001-0.244,0.003c-1.776,0.04-3.445,0.594-3.445,2.483
			c0,1.312,1.162,2.245,2.962,2.788c0.54,0.153,1.235,0.357,1.642,0.512c2.512,0.844,3.871,1.882,3.871,3.984
			c0,2.83-2.092,4.827-5.839,4.805c-1.913-0.045-3.542-0.325-4.854-0.714v-2.83h1.161L101.205,93.641z"/>
		<path style="fill:#FFFFFF;" d="M104.907,95.935h-0.063c-1.771-0.042-3.412-0.283-4.881-0.718l-0.067-0.02v-2.996h1.347
			l0.054,1.365c0.854,0.215,1.856,0.416,3.361,0.445l0.118,0.002c1.23,0,2.175-0.281,2.805-0.834
			c0.539-0.473,0.823-1.132,0.823-1.906c0-1.553-1.173-2.097-3.664-2.891c-0.547-0.169-0.823-0.268-1.438-0.496
			c-2.179-0.788-3.379-2.258-3.379-4.136c0-3.842,3.771-4.311,5.394-4.332l0.192-0.002c1.999,0,3.587,0.398,4.746,0.744l0.068,0.021
			v2.939h-1.348l-0.049-1.361c-0.905-0.211-1.898-0.401-3.027-0.401l-0.242,0.003c-2.225,0.051-3.353,0.854-3.353,2.389
			c0,1.509,1.574,2.299,2.895,2.696c0.505,0.145,1.228,0.355,1.647,0.516c2.359,0.792,3.933,1.788,3.933,4.072
			C110.779,94.058,108.529,95.935,104.907,95.935L104.907,95.935z M100.084,95.055c1.436,0.418,3.037,0.65,4.764,0.691l0.059,0.094
			v-0.094c3.506,0,5.684-1.805,5.684-4.711c0-1.883-1.067-2.975-3.809-3.895c-0.416-0.158-1.133-0.367-1.636-0.512
			c-1.983-0.598-3.031-1.592-3.031-2.878c0-1.635,1.224-2.525,3.537-2.578l0.247-0.002c1.177,0,2.205,0.203,3.142,0.422l0.07,0.018
			l0.047,1.322h0.976v-2.609c-1.142-0.338-2.689-0.718-4.625-0.718l-0.19,0.002c-1.565,0.022-5.207,0.47-5.207,4.144
			c0,1.792,1.157,3.199,3.256,3.958c0.612,0.229,0.886,0.326,1.431,0.494c2.362,0.753,3.795,1.336,3.795,3.07
			c0,0.83-0.307,1.539-0.887,2.048c-0.667,0.585-1.652,0.881-2.93,0.881l0,0l-0.121-0.001c-1.564-0.031-2.594-0.244-3.474-0.47
			l-0.067-0.018l-0.053-1.323h-0.977V95.055L100.084,95.055z"/>
	</g>
	<g>
		<path style="fill:#FFFFFF;" d="M126.881,87.68c0,4.664-2.555,8.16-7.278,8.16s-7.281-3.496-7.281-8.16
			c0-4.665,2.558-8.173,7.281-8.173S126.881,83.015,126.881,87.68z M114.422,87.68c0,3.628,1.604,6.621,5.181,6.621
			s5.188-2.992,5.188-6.621c0-3.628-1.611-6.631-5.188-6.631S114.422,84.052,114.422,87.68z"/>
		<path style="fill:#FFFFFF;" d="M119.603,95.935c-4.48,0-7.376-3.24-7.376-8.255c0-5.022,2.896-8.268,7.376-8.268
			c4.479,0,7.372,3.245,7.372,8.268C126.975,92.695,124.082,95.935,119.603,95.935L119.603,95.935z M119.603,79.601
			c-4.365,0-7.187,3.172-7.187,8.079c0,4.9,2.821,8.066,7.187,8.066c4.363,0,7.184-3.166,7.184-8.066
			C126.787,82.773,123.966,79.601,119.603,79.601L119.603,79.601z M119.603,94.396c-3.254,0-5.274-2.573-5.274-6.716
			c0-4.148,2.021-6.726,5.274-6.726c3.258,0,5.282,2.577,5.282,6.726C124.885,91.823,122.861,94.396,119.603,94.396L119.603,94.396z
			 M119.603,81.144c-3.185,0-5.086,2.443-5.086,6.536c0,4.087,1.901,6.527,5.086,6.527c3.19,0,5.094-2.44,5.094-6.527
			C124.697,84.52,123.358,81.144,119.603,81.144L119.603,81.144z"/>
	</g>
	<g>
		<path style="fill:#FFFFFF;" d="M140.867,94.991c-1.175,0.514-2.73,0.872-4.646,0.872c-4.724,0-7.276-3.499-7.276-8.163
			c0-4.665,2.553-8.173,7.276-8.173c1.916,0,3.473,0.36,4.647,0.877v2.678h-1.162l-0.037-1.265c-0.82-0.429-1.961-0.749-3.426-0.749
			c-3.577,0-5.18,3.004-5.18,6.632s1.603,6.623,5.181,6.623c1.463,0,2.604-0.316,3.426-0.741l0.037-1.266h1.16V94.991z"/>
		<path style="fill:#FFFFFF;" d="M136.22,95.958c-4.478,0-7.37-3.242-7.37-8.258c0-5.022,2.893-8.268,7.37-8.268
			c1.747,0,3.366,0.306,4.686,0.885l0.057,0.024v2.835h-1.349l-0.037-1.302c-0.653-0.331-1.749-0.712-3.334-0.712
			c-3.185,0-5.085,2.443-5.085,6.537c0,4.088,1.9,6.529,5.086,6.529c1.585,0,2.682-0.379,3.334-0.707l0.036-1.301h1.348v2.832
			l-0.057,0.023C139.589,95.653,137.969,95.958,136.22,95.958L136.22,95.958z M136.22,79.621c-4.363,0-7.182,3.172-7.182,8.079
			c0,4.9,2.818,8.068,7.182,8.068c1.698,0,3.271-0.289,4.553-0.84v-2.518h-0.975l-0.036,1.229l-0.049,0.026
			c-0.664,0.343-1.805,0.752-3.47,0.752c-3.254,0-5.275-2.574-5.275-6.718c0-4.149,2.021-6.727,5.274-6.727
			c1.664,0,2.806,0.413,3.471,0.759l0.049,0.026l0.036,1.229h0.976v-2.523C139.488,79.912,137.916,79.621,136.22,79.621
			L136.22,79.621z"/>
	</g>
	<g>
		<path style="fill:#FFFFFF;" d="M148.284,79.791v1.422l-1.386,0.066v12.824l1.386,0.067v1.422h-4.869V94.17l1.386-0.067V81.279
			l-1.386-0.066v-1.422H148.284z"/>
		<path style="fill:#FFFFFF;" d="M148.379,95.686h-5.057v-1.605l1.385-0.068V81.37l-1.385-0.067v-1.606h5.057v1.606l-1.386,0.067
			v12.643l1.386,0.068V95.686L148.379,95.686z M143.51,95.498h4.679V94.26l-1.386-0.067V81.189l1.386-0.066v-1.237h-4.679v1.237
			l1.386,0.066v13.004l-1.386,0.067V95.498L143.51,95.498z"/>
	</g>
	<g>
		<path style="fill:#FFFFFF;" d="M159.017,79.791l5.127,14.325l1.366,0.055v1.422h-3.091l-1.424-4.141h-6.423l-1.423,4.141h-3.096
			V94.17l1.369-0.055l4.68-12.837l-1.453-0.059l0.296-1.43H159.017z M157.753,81.632l-2.912,8.353h5.824L157.753,81.632z"/>
		<path style="fill:#FFFFFF;" d="M165.604,95.686h-3.253l-1.423-4.141h-6.289l-1.422,4.141h-3.259v-1.605l1.397-0.056l4.613-12.656
			l-1.436-0.059l0.334-1.614h4.215l5.128,14.329l1.394,0.056V95.686L165.604,95.686z M162.486,95.498h2.929v-1.235l-1.34-0.055
			l-5.125-14.322h-3.928l-0.259,1.245l1.472,0.061l-0.045,0.121l-4.699,12.896l-1.343,0.055v1.235h2.934l1.423-4.141h6.559
			L162.486,95.498L162.486,95.498z M160.798,90.08h-6.09l3.045-8.734L160.798,90.08L160.798,90.08z M154.974,89.891h5.559
			l-2.779-7.972L154.974,89.891L154.974,89.891z"/>
	</g>
	<g>
		<path style="fill:#FFFFFF;" d="M176.272,79.791v2.765h-1.16l-0.048-1.297h-3.387v12.845l1.377,0.067v1.422h-4.869V94.17
			l1.396-0.067V81.258h-3.376l-0.047,1.297h-1.162v-2.765H176.272z"/>
		<path style="fill:#FFFFFF;" d="M173.149,95.686h-5.058v-1.605l1.396-0.068V81.353h-3.189l-0.048,1.297h-1.347v-2.954h11.464v2.954
			h-1.347l-0.047-1.297h-3.201v12.659l1.377,0.068V95.686L173.149,95.686z M168.28,95.498h4.68V94.26l-1.377-0.067V81.164h3.573
			l0.047,1.297h0.976v-2.575h-11.087v2.575h0.978l0.046-1.297h3.561v13.029l-1.396,0.067V95.498L168.28,95.498z"/>
	</g>
	<g>
		<path style="fill:#FFFFFF;" d="M182.913,79.791v1.422l-1.386,0.066v12.824l1.386,0.067v1.422h-4.868V94.17l1.388-0.067V81.279
			l-1.388-0.066v-1.422H182.913z"/>
		<path style="fill:#FFFFFF;" d="M183.008,95.686h-5.057v-1.605l1.387-0.068V81.37l-1.387-0.067v-1.606h5.057v1.606l-1.386,0.067
			v12.643l1.386,0.068V95.686L183.008,95.686z M178.14,95.498h4.68V94.26l-1.386-0.067V81.189l1.386-0.066v-1.237h-4.68v1.237
			l1.388,0.066v13.004l-1.388,0.067V95.498L178.14,95.498z"/>
	</g>
	<g>
		<path style="fill:#FFFFFF;" d="M200.114,87.68c0,4.664-2.555,8.16-7.278,8.16s-7.281-3.496-7.281-8.16
			c0-4.665,2.558-8.173,7.281-8.173S200.114,83.015,200.114,87.68z M187.655,87.68c0,3.628,1.604,6.621,5.181,6.621
			s5.188-2.992,5.188-6.621c0-3.628-1.611-6.631-5.188-6.631S187.655,84.052,187.655,87.68z"/>
		<path style="fill:#FFFFFF;" d="M192.836,95.935c-4.48,0-7.376-3.24-7.376-8.255c0-5.022,2.896-8.268,7.376-8.268
			c4.479,0,7.372,3.245,7.372,8.268C200.208,92.695,197.314,95.935,192.836,95.935L192.836,95.935z M192.836,79.601
			c-4.365,0-7.187,3.172-7.187,8.079c0,4.9,2.821,8.066,7.187,8.066c4.363,0,7.184-3.166,7.184-8.066
			C200.02,82.773,197.199,79.601,192.836,79.601L192.836,79.601z M192.836,94.396c-3.254,0-5.275-2.573-5.275-6.716
			c0-4.148,2.021-6.726,5.275-6.726c3.258,0,5.283,2.577,5.283,6.726C198.119,91.823,196.094,94.396,192.836,94.396L192.836,94.396z
			 M192.836,81.144c-3.185,0-5.087,2.443-5.087,6.536c0,4.087,1.902,6.527,5.087,6.527c3.189,0,5.094-2.44,5.094-6.527
			C197.93,84.52,196.592,81.144,192.836,81.144L192.836,81.144z"/>
	</g>
	<g>
		<path style="fill:#FFFFFF;" d="M217.453,79.791v1.422l-1.386,0.066v14.313h-2.179l-7.853-12.29v12.29h-3.483V94.17l1.388-0.067
			V81.279l-1.388-0.066v-1.422h3.581l7.836,12.26v-12.26H217.453z"/>
		<path style="fill:#FFFFFF;" d="M216.161,95.686h-2.324l-0.027-0.043l-7.68-12.017v12.06h-3.671v-1.605l1.387-0.068V81.37
			l-1.387-0.067v-1.606h3.726l0.028,0.044l7.663,11.987V79.696h3.671v1.606l-1.386,0.067V95.686L216.161,95.686z M213.94,95.498
			h2.032V81.189l1.386-0.066v-1.237h-3.294v12.488l-7.983-12.488h-3.434v1.237l1.387,0.066v13.004l-1.387,0.067v1.237h3.294V82.98
			L213.94,95.498L213.94,95.498z"/>
	</g>
	<circle style="fill:#FB4F14;" cx="46.857" cy="45.802" r="7.397"/>
	<path style="fill:#FDC82F;" d="M68.739,88.996l-13.028-35.4c-2.164,2.452-5.323,4.007-8.853,4.007
		c-4.561,0-8.51-2.588-10.479-6.372L14.93,65.228c-0.288,0.189-0.391,0.562-0.242,0.872c0.117,0.243,0.359,0.386,0.617,0.386
		c0.071,0,0.145-0.012,0.216-0.035l22.772-7.588L22.932,97.387l0,0l-7.396,18.55c-0.133,0.331,0.014,0.711,0.336,0.869
		c0.098,0.047,0.198,0.067,0.3,0.067c0.237,0,0.466-0.123,0.591-0.341l8.237-14.18h0l22.832-39.302L67.59,89.758
		c0.132,0.18,0.339,0.276,0.55,0.276c0.004,0,0.011,0.001,0.014,0c0.378,0,0.685-0.306,0.685-0.683
		C68.838,89.221,68.802,89.099,68.739,88.996z"/>
	<path style="fill:#FDC82F;" d="M75.528,24.734c-0.229-0.257-0.615-0.304-0.9-0.106L55.57,37.819
		c1.604,1.751,2.704,3.994,3.017,6.529c0.025,0.204,0.028,0.406,0.043,0.607l16.904-19.313C75.76,25.38,75.757,24.992,75.528,24.734
		z"/>
	<g>
		<g>
			<g>
				<path style="fill:#938984;" d="M78.806,101.601v1.14l-0.573,0.059v5.863h-1.815l-2.389-4.156v4.156h-2.315v-1.141l0.573-0.061
					v-4.662l-0.573-0.059v-1.14h2.401l2.376,4.13v-4.13H78.806z"/>
			</g>
			<g>
				<path style="fill:#938984;" d="M84.518,101.601l1.923,5.873l0.519,0.048v1.141h-1.969l-0.443-1.543h-2.119l-0.443,1.543h-1.971
					v-1.141l0.52-0.047l1.572-4.674l-0.559-0.055l0.265-1.146H84.518z M83.459,103.063l-0.842,2.878h1.685L83.459,103.063z"/>
			</g>
			<g>
				<path style="fill:#938984;" d="M93.13,101.601v1.673h-0.907l-0.041-0.493h-0.939v4.681l0.57,0.061v1.141h-2.889v-1.141
					l0.576-0.061v-4.681h-0.929l-0.042,0.493h-0.907v-1.673H93.13z"/>
			</g>
			<g>
				<path style="fill:#938984;" d="M97.302,101.601v1.14l-0.573,0.059v4.662l0.573,0.061v1.141h-2.889v-1.141l0.572-0.061v-4.662
					l-0.572-0.059v-1.14H97.302z"/>
			</g>
			<g>
				<path style="fill:#938984;" d="M105.701,105.128c0,2.165-1.254,3.675-3.473,3.675c-2.218,0-3.473-1.51-3.473-3.675
					s1.255-3.677,3.473-3.677C104.447,101.452,105.701,102.963,105.701,105.128z M100.499,105.128c0,1.298,0.443,2.423,1.729,2.423
					s1.737-1.125,1.737-2.423s-0.45-2.43-1.737-2.43C100.942,102.699,100.499,103.831,100.499,105.128z"/>
			</g>
			<g>
				<path style="fill:#938984;" d="M114.182,101.601v1.14l-0.573,0.059v5.863h-1.815l-2.389-4.156v4.156h-2.315v-1.141l0.573-0.061
					v-4.662l-0.573-0.059v-1.14h2.401l2.376,4.13v-4.13H114.182z"/>
			</g>
			<g>
				<path style="fill:#938984;" d="M119.894,101.601l1.923,5.873l0.519,0.048v1.141h-1.969l-0.443-1.543h-2.118l-0.443,1.543h-1.971
					v-1.141l0.519-0.047l1.572-4.674l-0.559-0.055l0.265-1.146H119.894z M118.835,103.063l-0.842,2.878h1.685L118.835,103.063z"/>
			</g>
			<g>
				<path style="fill:#938984;" d="M125.93,101.601v5.671h1.426l0.042-0.475h0.97v1.865h-4.753v-1.141l0.572-0.061v-4.662
					l-0.572-0.059v-1.14H125.93z"/>
			</g>
			<g>
				<path style="fill:#938984;" d="M138.122,101.601v1.864h-0.904l-0.041-0.494h-1.682v1.721h2.237v1.18h-2.237v1.59l0.574,0.061
					v1.141h-2.889v-1.141l0.572-0.061v-4.662l-0.572-0.059v-1.14H138.122z"/>
			</g>
			<g>
				<path style="fill:#938984;" d="M146.224,105.128c0,2.165-1.254,3.675-3.473,3.675c-2.218,0-3.473-1.51-3.473-3.675
					s1.255-3.677,3.473-3.677C144.969,101.452,146.224,102.963,146.224,105.128z M141.022,105.128c0,1.298,0.443,2.423,1.729,2.423
					c1.286,0,1.737-1.125,1.737-2.423s-0.45-2.43-1.737-2.43C141.465,102.699,141.022,103.831,141.022,105.128z"/>
			</g>
			<g>
				<path style="fill:#938984;" d="M151.434,101.601c1.053,0,2.298,0.697,2.298,2.235c0,0.835-0.483,1.501-1.211,1.807l-0.143,0.034
					l1.029,1.745l0.82,0.1v1.141h-1.971l-1.471-2.654h-0.864v2.654h-2.241v-1.141l0.571-0.061v-4.662l-0.571-0.059v-1.14H151.434z
					 M150.996,104.829c0.534,0,0.993-0.322,0.993-1.006c0-0.709-0.455-1.042-1-1.042h-1.067v2.048H150.996z"/>
			</g>
			<g>
				<path style="fill:#938984;" d="M160.567,101.601v1.673h-0.903l-0.042-0.493h-1.727v1.687h2.389v1.18h-2.389v1.834h1.727
					l0.042-0.492h0.97v1.674h-5.053v-1.141l0.572-0.061v-4.662l-0.572-0.059v-1.14H160.567z"/>
			</g>
			<g>
				<path style="fill:#938984;" d="M169.083,101.601v1.14l-0.573,0.059v5.863h-1.815l-2.389-4.156v4.156h-2.315v-1.141l0.573-0.061
					v-4.662l-0.573-0.059v-1.14h2.401l2.376,4.13v-4.13H169.083z"/>
			</g>
			<g>
				<path style="fill:#938984;" d="M171.495,107.239c0.3,0.081,0.622,0.144,1.063,0.15c0.86,0.01,1.163-0.369,1.163-0.794
					c0-0.505-0.517-0.675-1.341-0.94c-0.221-0.07-0.384-0.131-0.62-0.234c-0.718-0.306-1.272-0.864-1.272-1.835
					c0-1.626,1.42-2.114,2.552-2.122c0.976-0.007,1.719,0.184,2.276,0.377v1.684h-0.907l-0.043-0.506
					c-0.27-0.059-0.582-0.119-0.932-0.119c-0.031,0-0.063,0-0.095,0.002c-0.454,0.012-1.022,0.15-1.022,0.685
					c0,0.414,0.425,0.662,1.044,0.835c0.256,0.065,0.567,0.148,0.806,0.249c0.859,0.315,1.377,0.858,1.377,1.714
					c0,1.534-1.168,2.42-2.813,2.41c-0.713-0.011-1.564-0.121-2.188-0.33v-1.73h0.906L171.495,107.239z"/>
			</g>
			<g>
				<path style="fill:#938984;" d="M179.881,101.601v1.14l-0.574,0.059v4.662l0.574,0.061v1.141h-2.89v-1.141l0.573-0.061v-4.662
					l-0.573-0.059v-1.14H179.881z"/>
			</g>
			<g>
				<path style="fill:#938984;" d="M187.092,108.264c-0.564,0.336-1.312,0.539-2.22,0.539c-2.219,0-3.472-1.505-3.472-3.67
					s1.253-3.677,3.472-3.677c0.908,0,1.655,0.203,2.221,0.542v1.598h-0.907l-0.033-0.438c-0.267-0.27-0.689-0.455-1.26-0.455
					c-1.287,0-1.73,1.132-1.73,2.43c0,1.297,0.443,2.423,1.73,2.423c0.568,0,0.993-0.183,1.26-0.45l0.033-0.437h0.906V108.264z"/>
			</g>
			<g>
				<path style="fill:#938984;" d="M194.513,101.601v5.671h1.427l0.042-0.475h0.969v1.865h-4.753v-1.141l0.573-0.061v-4.662
					l-0.573-0.059v-1.14H194.513z"/>
			</g>
			<g>
				<path style="fill:#938984;" d="M203.219,101.601v1.673h-0.903l-0.043-0.493h-1.726v1.687h2.389v1.18h-2.389v1.834h1.726
					l0.043-0.492h0.97v1.674h-5.054v-1.141l0.572-0.061v-4.662l-0.572-0.059v-1.14H203.219z"/>
			</g>
			<g>
				<path style="fill:#938984;" d="M208.77,101.601l1.923,5.873l0.519,0.048v1.141h-1.969l-0.444-1.543h-2.118l-0.443,1.543h-1.971
					v-1.141l0.519-0.047l1.572-4.674l-0.559-0.055l0.266-1.146H208.77z M207.71,103.063l-0.842,2.878h1.685L207.71,103.063z"/>
			</g>
			<g>
				<path style="fill:#938984;" d="M218.044,108.193c-0.579,0.31-1.439,0.61-2.473,0.61c-2.219,0-3.473-1.505-3.473-3.67
					s1.254-3.677,3.473-3.677c0.893,0,1.58,0.178,2.258,0.551v1.598h-0.907l-0.034-0.437c-0.297-0.279-0.711-0.465-1.29-0.465
					c-1.287,0-1.73,1.132-1.73,2.43c0,1.297,0.443,2.423,1.73,2.423c0.411,0,0.802-0.152,1.054-0.394v-1.385l-1.254-0.11v-0.772
					h2.646V108.193z"/>
			</g>
			<g>
				<path style="fill:#938984;" d="M226.44,101.601v1.14l-0.574,0.059v3.586c0,1.621-1.263,2.408-2.814,2.408
					c-1.553,0-2.815-0.787-2.815-2.408v-3.586l-0.573-0.059v-1.14h2.316v4.856c0,0.771,0.373,1.095,1.072,1.095
					s1.071-0.324,1.071-1.095v-4.856H226.44z"/>
			</g>
			<g>
				<path style="fill:#938984;" d="M233.085,101.601v1.673h-0.903l-0.043-0.493h-1.726v1.687h2.388v1.18h-2.388v1.834h1.726
					l0.043-0.492h0.969v1.674h-5.052v-1.141l0.572-0.061v-4.662l-0.572-0.059v-1.14H233.085z"/>
			</g>
		</g>
	</g>
</g>
</svg>
